<svg xmlns="http://www.w3.org/2000/svg" xmlns:xlink="http://www.w3.org/1999/xlink" width="5000" zoomAndPan="magnify" viewBox="0 0 3750 3749.999967" height="5000" preserveAspectRatio="xMidYMid meet" version="1.0"><path fill="#5e17eb" d="M 111.183594 3958.8125 L -86.144531 3844.886719 L -86.144531 3617.035156 L 111.183594 3503.109375 L 308.507812 3617.035156 L 308.507812 3844.886719 Z M -80.785156 3841.800781 L 111.183594 3952.628906 L 303.148438 3841.800781 L 303.148438 3620.132812 L 111.183594 3509.304688 L -80.785156 3620.132812 Z M -80.785156 3841.800781 " fill-opacity="1" fill-rule="nonzero"/><path fill="#5e17eb" d="M 500.476562 3958.8125 L 303.148438 3844.886719 L 303.148438 3617.035156 L 500.476562 3503.109375 L 697.800781 3617.035156 L 697.800781 3844.886719 Z M 308.507812 3841.800781 L 500.476562 3952.628906 L 692.441406 3841.800781 L 692.441406 3620.132812 L 500.476562 3509.304688 L 308.507812 3620.132812 Z M 308.507812 3841.800781 " fill-opacity="1" fill-rule="nonzero"/><path fill="#5e17eb" d="M 889.769531 3958.8125 L 692.441406 3844.886719 L 692.441406 3617.035156 L 889.769531 3503.109375 L 1087.09375 3617.035156 L 1087.09375 3844.886719 Z M 697.800781 3841.800781 L 889.769531 3952.628906 L 1081.734375 3841.800781 L 1081.734375 3620.132812 L 889.769531 3509.304688 L 697.800781 3620.132812 Z M 697.800781 3841.800781 " fill-opacity="1" fill-rule="nonzero"/><path fill="#5e17eb" d="M 1279.050781 3958.8125 L 1081.726562 3844.886719 L 1081.726562 3617.035156 L 1279.050781 3503.109375 L 1476.375 3617.035156 L 1476.375 3844.886719 Z M 1087.09375 3841.800781 L 1279.0625 3952.628906 L 1471.027344 3841.800781 L 1471.027344 3620.132812 L 1279.0625 3509.304688 L 1087.09375 3620.132812 Z M 1087.09375 3841.800781 " fill-opacity="1" fill-rule="nonzero"/><path fill="#5e17eb" d="M 1668.34375 3958.8125 L 1471.019531 3844.886719 L 1471.019531 3617.035156 L 1668.34375 3503.109375 L 1865.667969 3617.035156 L 1865.667969 3844.886719 Z M 1476.375 3841.800781 L 1668.34375 3952.628906 L 1860.3125 3841.800781 L 1860.3125 3620.132812 L 1668.34375 3509.304688 L 1476.375 3620.132812 Z M 1476.375 3841.800781 " fill-opacity="1" fill-rule="nonzero"/><path fill="#5e17eb" d="M -83.464844 3621.675781 L -280.789062 3507.75 L -280.789062 3279.898438 L -83.464844 3165.976562 L 113.859375 3279.898438 L 113.859375 3507.75 Z M -275.433594 3504.664062 L -83.464844 3615.492188 L 108.503906 3504.664062 L 108.503906 3282.996094 L -83.464844 3172.167969 L -275.433594 3282.996094 Z M -275.433594 3504.664062 " fill-opacity="1" fill-rule="nonzero"/><path fill="#5e17eb" d="M 305.828125 3621.675781 L 108.503906 3507.75 L 108.503906 3279.898438 L 305.828125 3165.976562 L 503.152344 3279.898438 L 503.152344 3507.75 Z M 113.859375 3504.664062 L 305.828125 3615.492188 L 497.796875 3504.664062 L 497.796875 3282.996094 L 305.828125 3172.167969 L 113.859375 3282.996094 Z M 113.859375 3504.664062 " fill-opacity="1" fill-rule="nonzero"/><path fill="#5e17eb" d="M 695.121094 3621.675781 L 497.796875 3507.75 L 497.796875 3279.898438 L 695.121094 3165.976562 L 892.445312 3279.898438 L 892.445312 3507.75 Z M 503.152344 3504.664062 L 695.121094 3615.492188 L 887.089844 3504.664062 L 887.089844 3282.996094 L 695.121094 3172.167969 L 503.152344 3282.996094 Z M 503.152344 3504.664062 " fill-opacity="1" fill-rule="nonzero"/><path fill="#5e17eb" d="M 1084.414062 3621.675781 L 887.089844 3507.75 L 887.089844 3279.898438 L 1084.414062 3165.976562 L 1281.738281 3279.898438 L 1281.738281 3507.75 Z M 892.445312 3504.664062 L 1084.414062 3615.492188 L 1276.382812 3504.664062 L 1276.382812 3282.996094 L 1084.414062 3172.167969 L 892.445312 3282.996094 Z M 892.445312 3504.664062 " fill-opacity="1" fill-rule="nonzero"/><path fill="#5e17eb" d="M 1473.695312 3621.675781 L 1276.371094 3507.75 L 1276.371094 3279.898438 L 1473.695312 3165.976562 L 1671.019531 3279.898438 L 1671.019531 3507.75 Z M 1281.730469 3504.664062 L 1473.695312 3615.492188 L 1665.664062 3504.664062 L 1665.664062 3282.996094 L 1473.695312 3172.167969 L 1281.730469 3282.996094 Z M 1281.730469 3504.664062 " fill-opacity="1" fill-rule="nonzero"/><path fill="#5e17eb" d="M 1862.988281 3621.675781 L 1665.664062 3507.75 L 1665.664062 3279.898438 L 1862.988281 3165.976562 L 2060.3125 3279.898438 L 2060.3125 3507.75 Z M 1671.019531 3504.664062 L 1862.988281 3615.492188 L 2054.957031 3504.664062 L 2054.957031 3282.996094 L 1862.988281 3172.167969 L 1671.019531 3282.996094 Z M 1671.019531 3504.664062 " fill-opacity="1" fill-rule="nonzero"/><path fill="#5e17eb" d="M 111.183594 3283.855469 L -86.144531 3169.929688 L -86.144531 2942.078125 L 111.183594 2828.152344 L 308.507812 2942.078125 L 308.507812 3169.929688 Z M -80.785156 3166.84375 L 111.183594 3277.671875 L 303.148438 3166.84375 L 303.148438 2945.175781 L 111.183594 2834.347656 L -80.785156 2945.175781 Z M -80.785156 3166.84375 " fill-opacity="1" fill-rule="nonzero"/><path fill="#5e17eb" d="M 500.476562 3283.855469 L 303.148438 3169.929688 L 303.148438 2942.078125 L 500.476562 2828.152344 L 697.800781 2942.078125 L 697.800781 3169.929688 Z M 308.507812 3166.84375 L 500.476562 3277.671875 L 692.441406 3166.84375 L 692.441406 2945.175781 L 500.476562 2834.347656 L 308.507812 2945.175781 Z M 308.507812 3166.84375 " fill-opacity="1" fill-rule="nonzero"/><path fill="#5e17eb" d="M 889.769531 3283.855469 L 692.441406 3169.929688 L 692.441406 2942.078125 L 889.769531 2828.152344 L 1087.09375 2942.078125 L 1087.09375 3169.929688 Z M 697.800781 3166.84375 L 889.769531 3277.671875 L 1081.734375 3166.84375 L 1081.734375 2945.175781 L 889.769531 2834.347656 L 697.800781 2945.175781 Z M 697.800781 3166.84375 " fill-opacity="1" fill-rule="nonzero"/><path fill="#5e17eb" d="M 1279.050781 3283.855469 L 1081.726562 3169.929688 L 1081.726562 2942.078125 L 1279.050781 2828.152344 L 1476.375 2942.078125 L 1476.375 3169.929688 Z M 1087.09375 3166.84375 L 1279.0625 3277.671875 L 1471.027344 3166.84375 L 1471.027344 2945.175781 L 1279.0625 2834.347656 L 1087.09375 2945.175781 Z M 1087.09375 3166.84375 " fill-opacity="1" fill-rule="nonzero"/><path fill="#5e17eb" d="M 1668.34375 3283.855469 L 1471.019531 3169.929688 L 1471.019531 2942.078125 L 1668.34375 2828.152344 L 1865.667969 2942.078125 L 1865.667969 3169.929688 Z M 1476.375 3166.84375 L 1668.34375 3277.671875 L 1860.3125 3166.84375 L 1860.3125 2945.175781 L 1668.34375 2834.347656 L 1476.375 2945.175781 Z M 1476.375 3166.84375 " fill-opacity="1" fill-rule="nonzero"/><path fill="#5e17eb" d="M -83.464844 2946.71875 L -280.789062 2832.792969 L -280.789062 2604.941406 L -83.464844 2491.019531 L 113.859375 2604.941406 L 113.859375 2832.792969 Z M -275.433594 2829.707031 L -83.464844 2940.535156 L 108.503906 2829.707031 L 108.503906 2608.039062 L -83.464844 2497.210938 L -275.433594 2608.039062 Z M -275.433594 2829.707031 " fill-opacity="1" fill-rule="nonzero"/><path fill="#5e17eb" d="M 305.828125 2946.71875 L 108.503906 2832.792969 L 108.503906 2604.941406 L 305.828125 2491.019531 L 503.152344 2604.941406 L 503.152344 2832.792969 Z M 113.859375 2829.707031 L 305.828125 2940.535156 L 497.796875 2829.707031 L 497.796875 2608.039062 L 305.828125 2497.210938 L 113.859375 2608.039062 Z M 113.859375 2829.707031 " fill-opacity="1" fill-rule="nonzero"/><path fill="#5e17eb" d="M 695.121094 2946.71875 L 497.796875 2832.792969 L 497.796875 2604.941406 L 695.121094 2491.019531 L 892.445312 2604.941406 L 892.445312 2832.792969 Z M 503.152344 2829.707031 L 695.121094 2940.535156 L 887.089844 2829.707031 L 887.089844 2608.039062 L 695.121094 2497.210938 L 503.152344 2608.039062 Z M 503.152344 2829.707031 " fill-opacity="1" fill-rule="nonzero"/><path fill="#5e17eb" d="M 1084.414062 2946.71875 L 887.089844 2832.792969 L 887.089844 2604.941406 L 1084.414062 2491.019531 L 1281.738281 2604.941406 L 1281.738281 2832.792969 Z M 892.445312 2829.707031 L 1084.414062 2940.535156 L 1276.382812 2829.707031 L 1276.382812 2608.039062 L 1084.414062 2497.210938 L 892.445312 2608.039062 Z M 892.445312 2829.707031 " fill-opacity="1" fill-rule="nonzero"/><path fill="#5e17eb" d="M 1473.695312 2946.71875 L 1276.371094 2832.792969 L 1276.371094 2604.941406 L 1473.695312 2491.019531 L 1671.019531 2604.941406 L 1671.019531 2832.792969 Z M 1281.730469 2829.707031 L 1473.695312 2940.535156 L 1665.664062 2829.707031 L 1665.664062 2608.039062 L 1473.695312 2497.210938 L 1281.730469 2608.039062 Z M 1281.730469 2829.707031 " fill-opacity="1" fill-rule="nonzero"/><path fill="#5e17eb" d="M 1862.988281 2946.71875 L 1665.664062 2832.792969 L 1665.664062 2604.941406 L 1862.988281 2491.019531 L 2060.3125 2604.941406 L 2060.3125 2832.792969 Z M 1671.019531 2829.707031 L 1862.988281 2940.535156 L 2054.957031 2829.707031 L 2054.957031 2608.039062 L 1862.988281 2497.210938 L 1671.019531 2608.039062 Z M 1671.019531 2829.707031 " fill-opacity="1" fill-rule="nonzero"/><path fill="#5e17eb" d="M 111.183594 2608.898438 L -86.144531 2494.972656 L -86.144531 2267.121094 L 111.183594 2153.195312 L 308.507812 2267.121094 L 308.507812 2494.972656 Z M -80.785156 2491.875 L 111.183594 2602.703125 L 303.148438 2491.875 L 303.148438 2270.207031 L 111.183594 2159.378906 L -80.785156 2270.21875 Z M -80.785156 2491.875 " fill-opacity="1" fill-rule="nonzero"/><path fill="#5e17eb" d="M 500.476562 2608.898438 L 303.148438 2494.972656 L 303.148438 2267.121094 L 500.476562 2153.195312 L 697.800781 2267.121094 L 697.800781 2494.972656 Z M 308.507812 2491.875 L 500.476562 2602.703125 L 692.441406 2491.875 L 692.441406 2270.207031 L 500.476562 2159.378906 L 308.507812 2270.207031 Z M 308.507812 2491.875 " fill-opacity="1" fill-rule="nonzero"/><path fill="#5e17eb" d="M 889.769531 2608.898438 L 692.441406 2494.972656 L 692.441406 2267.121094 L 889.769531 2153.195312 L 1087.09375 2267.121094 L 1087.09375 2494.972656 Z M 697.800781 2491.875 L 889.769531 2602.703125 L 1081.734375 2491.875 L 1081.734375 2270.207031 L 889.769531 2159.378906 L 697.800781 2270.207031 Z M 697.800781 2491.875 " fill-opacity="1" fill-rule="nonzero"/><path fill="#5e17eb" d="M 1279.050781 2608.898438 L 1081.726562 2494.972656 L 1081.726562 2267.121094 L 1279.050781 2153.195312 L 1476.375 2267.121094 L 1476.375 2494.972656 Z M 1087.09375 2491.875 L 1279.0625 2602.703125 L 1471.027344 2491.875 L 1471.027344 2270.207031 L 1279.0625 2159.378906 L 1087.09375 2270.207031 Z M 1087.09375 2491.875 " fill-opacity="1" fill-rule="nonzero"/><path fill="#5e17eb" d="M 1668.34375 2608.898438 L 1471.019531 2494.972656 L 1471.019531 2267.121094 L 1668.34375 2153.195312 L 1865.667969 2267.121094 L 1865.667969 2494.972656 Z M 1476.375 2491.875 L 1668.34375 2602.703125 L 1860.3125 2491.875 L 1860.3125 2270.207031 L 1668.34375 2159.378906 L 1476.375 2270.207031 Z M 1476.375 2491.875 " fill-opacity="1" fill-rule="nonzero"/><path fill="#5e17eb" d="M -83.464844 2271.761719 L -280.789062 2157.835938 L -280.789062 1929.984375 L -83.464844 1816.0625 L 113.859375 1929.984375 L 113.859375 2157.835938 Z M -275.433594 2154.738281 L -83.464844 2265.566406 L 108.503906 2154.738281 L 108.503906 1933.070312 L -83.464844 1822.242188 L -275.433594 1933.070312 Z M -275.433594 2154.738281 " fill-opacity="1" fill-rule="nonzero"/><path fill="#5e17eb" d="M 305.828125 2271.761719 L 108.503906 2157.835938 L 108.503906 1929.984375 L 305.828125 1816.0625 L 503.152344 1929.984375 L 503.152344 2157.835938 Z M 113.859375 2154.738281 L 305.828125 2265.566406 L 497.796875 2154.738281 L 497.796875 1933.070312 L 305.828125 1822.242188 L 113.859375 1933.070312 Z M 113.859375 2154.738281 " fill-opacity="1" fill-rule="nonzero"/><path fill="#5e17eb" d="M 695.121094 2271.761719 L 497.796875 2157.835938 L 497.796875 1929.984375 L 695.121094 1816.0625 L 892.445312 1929.984375 L 892.445312 2157.835938 Z M 503.152344 2154.738281 L 695.121094 2265.566406 L 887.089844 2154.738281 L 887.089844 1933.070312 L 695.121094 1822.242188 L 503.152344 1933.070312 Z M 503.152344 2154.738281 " fill-opacity="1" fill-rule="nonzero"/><path fill="#5e17eb" d="M 1084.414062 2271.761719 L 887.089844 2157.835938 L 887.089844 1929.984375 L 1084.414062 1816.0625 L 1281.738281 1929.984375 L 1281.738281 2157.835938 Z M 892.445312 2154.738281 L 1084.414062 2265.566406 L 1276.382812 2154.738281 L 1276.382812 1933.070312 L 1084.414062 1822.242188 L 892.445312 1933.070312 Z M 892.445312 2154.738281 " fill-opacity="1" fill-rule="nonzero"/><path fill="#5e17eb" d="M 1473.695312 2271.761719 L 1276.371094 2157.835938 L 1276.371094 1929.984375 L 1473.695312 1816.0625 L 1671.019531 1929.984375 L 1671.019531 2157.835938 Z M 1281.730469 2154.738281 L 1473.695312 2265.566406 L 1665.664062 2154.738281 L 1665.664062 1933.070312 L 1473.695312 1822.242188 L 1281.730469 1933.070312 Z M 1281.730469 2154.738281 " fill-opacity="1" fill-rule="nonzero"/><path fill="#5e17eb" d="M 1862.988281 2271.761719 L 1665.664062 2157.835938 L 1665.664062 1929.984375 L 1862.988281 1816.0625 L 2060.3125 1929.984375 L 2060.3125 2157.835938 Z M 1671.019531 2154.738281 L 1862.988281 2265.566406 L 2054.957031 2154.738281 L 2054.957031 1933.070312 L 1862.988281 1822.242188 L 1671.019531 1933.070312 Z M 1671.019531 2154.738281 " fill-opacity="1" fill-rule="nonzero"/><path fill="#5e17eb" d="M 111.183594 1933.9375 L -86.144531 1820.015625 L -86.144531 1592.164062 L 111.183594 1478.238281 L 308.507812 1592.164062 L 308.507812 1820.015625 Z M -80.785156 1816.917969 L 111.183594 1927.746094 L 303.148438 1816.917969 L 303.148438 1595.25 L 111.183594 1484.421875 L -80.785156 1595.261719 Z M -80.785156 1816.917969 " fill-opacity="1" fill-rule="nonzero"/><path fill="#5e17eb" d="M 500.476562 1933.9375 L 303.148438 1820.015625 L 303.148438 1592.164062 L 500.476562 1478.238281 L 697.800781 1592.164062 L 697.800781 1820.015625 Z M 308.507812 1816.917969 L 500.476562 1927.746094 L 692.441406 1816.917969 L 692.441406 1595.25 L 500.476562 1484.421875 L 308.507812 1595.25 Z M 308.507812 1816.917969 " fill-opacity="1" fill-rule="nonzero"/><path fill="#5e17eb" d="M 889.769531 1933.9375 L 692.441406 1820.015625 L 692.441406 1592.164062 L 889.769531 1478.238281 L 1087.09375 1592.164062 L 1087.09375 1820.015625 Z M 697.800781 1816.917969 L 889.769531 1927.746094 L 1081.734375 1816.917969 L 1081.734375 1595.25 L 889.769531 1484.421875 L 697.800781 1595.25 Z M 697.800781 1816.917969 " fill-opacity="1" fill-rule="nonzero"/><path fill="#5e17eb" d="M 1279.050781 1933.9375 L 1081.726562 1820.015625 L 1081.726562 1592.164062 L 1279.050781 1478.238281 L 1476.375 1592.164062 L 1476.375 1820.015625 Z M 1087.09375 1816.917969 L 1279.0625 1927.746094 L 1471.027344 1816.917969 L 1471.027344 1595.25 L 1279.0625 1484.421875 L 1087.09375 1595.25 Z M 1087.09375 1816.917969 " fill-opacity="1" fill-rule="nonzero"/><path fill="#5e17eb" d="M 1668.34375 1933.9375 L 1471.019531 1820.015625 L 1471.019531 1592.164062 L 1668.34375 1478.238281 L 1865.667969 1592.164062 L 1865.667969 1820.015625 Z M 1476.375 1816.917969 L 1668.34375 1927.746094 L 1860.3125 1816.917969 L 1860.3125 1595.25 L 1668.34375 1484.421875 L 1476.375 1595.25 Z M 1476.375 1816.917969 " fill-opacity="1" fill-rule="nonzero"/><path fill="#5e17eb" d="M -83.464844 1596.804688 L -280.789062 1482.878906 L -280.789062 1255.027344 L -83.464844 1141.105469 L 113.859375 1255.027344 L 113.859375 1482.878906 Z M -275.433594 1479.78125 L -83.464844 1590.609375 L 108.503906 1479.78125 L 108.503906 1258.113281 L -83.464844 1147.285156 L -275.433594 1258.113281 Z M -275.433594 1479.78125 " fill-opacity="1" fill-rule="nonzero"/><path fill="#5e17eb" d="M 305.828125 1596.804688 L 108.503906 1482.878906 L 108.503906 1255.027344 L 305.828125 1141.105469 L 503.152344 1255.027344 L 503.152344 1482.878906 Z M 113.859375 1479.78125 L 305.828125 1590.609375 L 497.796875 1479.78125 L 497.796875 1258.113281 L 305.828125 1147.285156 L 113.859375 1258.113281 Z M 113.859375 1479.78125 " fill-opacity="1" fill-rule="nonzero"/><path fill="#5e17eb" d="M 695.121094 1596.804688 L 497.796875 1482.878906 L 497.796875 1255.027344 L 695.121094 1141.105469 L 892.445312 1255.027344 L 892.445312 1482.878906 Z M 503.152344 1479.78125 L 695.121094 1590.609375 L 887.089844 1479.78125 L 887.089844 1258.113281 L 695.121094 1147.285156 L 503.152344 1258.113281 Z M 503.152344 1479.78125 " fill-opacity="1" fill-rule="nonzero"/><path fill="#5e17eb" d="M 1084.414062 1596.804688 L 887.089844 1482.878906 L 887.089844 1255.027344 L 1084.414062 1141.105469 L 1281.738281 1255.027344 L 1281.738281 1482.878906 Z M 892.445312 1479.78125 L 1084.414062 1590.609375 L 1276.382812 1479.78125 L 1276.382812 1258.113281 L 1084.414062 1147.285156 L 892.445312 1258.113281 Z M 892.445312 1479.78125 " fill-opacity="1" fill-rule="nonzero"/><path fill="#5e17eb" d="M 1473.695312 1596.804688 L 1276.371094 1482.878906 L 1276.371094 1255.027344 L 1473.695312 1141.105469 L 1671.019531 1255.027344 L 1671.019531 1482.878906 Z M 1281.730469 1479.78125 L 1473.695312 1590.609375 L 1665.664062 1479.78125 L 1665.664062 1258.113281 L 1473.695312 1147.285156 L 1281.730469 1258.113281 Z M 1281.730469 1479.78125 " fill-opacity="1" fill-rule="nonzero"/><path fill="#5e17eb" d="M 1862.988281 1596.804688 L 1665.664062 1482.878906 L 1665.664062 1255.027344 L 1862.988281 1141.105469 L 2060.3125 1255.027344 L 2060.3125 1482.878906 Z M 1671.019531 1479.78125 L 1862.988281 1590.609375 L 2054.957031 1479.78125 L 2054.957031 1258.113281 L 1862.988281 1147.285156 L 1671.019531 1258.113281 Z M 1671.019531 1479.78125 " fill-opacity="1" fill-rule="nonzero"/><path fill="#5e17eb" d="M 111.183594 1258.980469 L -86.144531 1145.058594 L -86.144531 917.207031 L 111.183594 803.28125 L 308.507812 917.207031 L 308.507812 1145.058594 Z M -80.785156 1141.960938 L 111.183594 1252.789062 L 303.148438 1141.960938 L 303.148438 920.292969 L 111.183594 809.464844 L -80.785156 920.292969 Z M -80.785156 1141.960938 " fill-opacity="1" fill-rule="nonzero"/><path fill="#5e17eb" d="M 500.476562 1258.980469 L 303.148438 1145.058594 L 303.148438 917.207031 L 500.476562 803.28125 L 697.800781 917.207031 L 697.800781 1145.058594 Z M 308.507812 1141.960938 L 500.476562 1252.789062 L 692.441406 1141.960938 L 692.441406 920.292969 L 500.476562 809.464844 L 308.507812 920.292969 Z M 308.507812 1141.960938 " fill-opacity="1" fill-rule="nonzero"/><path fill="#5e17eb" d="M 889.769531 1258.980469 L 692.441406 1145.058594 L 692.441406 917.207031 L 889.769531 803.28125 L 1087.09375 917.207031 L 1087.09375 1145.058594 Z M 697.800781 1141.960938 L 889.769531 1252.789062 L 1081.734375 1141.960938 L 1081.734375 920.292969 L 889.769531 809.464844 L 697.800781 920.292969 Z M 697.800781 1141.960938 " fill-opacity="1" fill-rule="nonzero"/><path fill="#5e17eb" d="M 1279.050781 1258.980469 L 1081.726562 1145.058594 L 1081.726562 917.207031 L 1279.050781 803.28125 L 1476.375 917.207031 L 1476.375 1145.058594 Z M 1087.09375 1141.960938 L 1279.0625 1252.789062 L 1471.027344 1141.960938 L 1471.027344 920.292969 L 1279.050781 809.464844 L 1087.082031 920.292969 L 1087.082031 1141.960938 Z M 1087.09375 1141.960938 " fill-opacity="1" fill-rule="nonzero"/><path fill="#5e17eb" d="M 1668.34375 1258.980469 L 1471.019531 1145.058594 L 1471.019531 917.207031 L 1668.34375 803.28125 L 1865.667969 917.207031 L 1865.667969 1145.058594 Z M 1476.375 1141.960938 L 1668.34375 1252.789062 L 1860.3125 1141.960938 L 1860.3125 920.292969 L 1668.34375 809.464844 L 1476.375 920.292969 Z M 1476.375 1141.960938 " fill-opacity="1" fill-rule="nonzero"/><path fill="#5e17eb" d="M -83.464844 921.847656 L -280.789062 807.921875 L -280.789062 580.070312 L -83.464844 466.148438 L 113.859375 580.070312 L 113.859375 807.921875 Z M -275.433594 804.824219 L -83.464844 915.652344 L 108.503906 804.824219 L 108.503906 583.15625 L -83.464844 472.328125 L -275.433594 583.15625 Z M -275.433594 804.824219 " fill-opacity="1" fill-rule="nonzero"/><path fill="#5e17eb" d="M 305.828125 921.847656 L 108.503906 807.921875 L 108.503906 580.070312 L 305.828125 466.148438 L 503.152344 580.070312 L 503.152344 807.921875 Z M 113.859375 804.824219 L 305.828125 915.652344 L 497.796875 804.824219 L 497.796875 583.15625 L 305.828125 472.328125 L 113.859375 583.15625 Z M 113.859375 804.824219 " fill-opacity="1" fill-rule="nonzero"/><path fill="#5e17eb" d="M 695.121094 921.847656 L 497.796875 807.921875 L 497.796875 580.070312 L 695.121094 466.148438 L 892.445312 580.070312 L 892.445312 807.921875 Z M 503.152344 804.824219 L 695.121094 915.652344 L 887.089844 804.824219 L 887.089844 583.15625 L 695.121094 472.328125 L 503.152344 583.15625 Z M 503.152344 804.824219 " fill-opacity="1" fill-rule="nonzero"/><path fill="#5e17eb" d="M 1084.414062 921.847656 L 887.089844 807.921875 L 887.089844 580.070312 L 1084.414062 466.148438 L 1281.738281 580.070312 L 1281.738281 807.921875 Z M 892.445312 804.824219 L 1084.414062 915.652344 L 1276.382812 804.824219 L 1276.382812 583.15625 L 1084.414062 472.328125 L 892.445312 583.15625 Z M 892.445312 804.824219 " fill-opacity="1" fill-rule="nonzero"/><path fill="#5e17eb" d="M 1473.695312 921.847656 L 1276.371094 807.921875 L 1276.371094 580.070312 L 1473.695312 466.148438 L 1671.019531 580.070312 L 1671.019531 807.921875 Z M 1281.730469 804.824219 L 1473.695312 915.652344 L 1665.664062 804.824219 L 1665.664062 583.15625 L 1473.695312 472.328125 L 1281.730469 583.15625 Z M 1281.730469 804.824219 " fill-opacity="1" fill-rule="nonzero"/><path fill="#5e17eb" d="M 1862.988281 921.847656 L 1665.664062 807.921875 L 1665.664062 580.070312 L 1862.988281 466.148438 L 2060.3125 580.070312 L 2060.3125 807.921875 Z M 1671.019531 804.824219 L 1862.988281 915.652344 L 2054.957031 804.824219 L 2054.957031 583.15625 L 1862.988281 472.328125 L 1671.019531 583.15625 Z M 1671.019531 804.824219 " fill-opacity="1" fill-rule="nonzero"/><path fill="#5e17eb" d="M 111.183594 584.023438 L -86.144531 470.101562 L -86.144531 242.25 L 111.183594 128.324219 L 308.507812 242.25 L 308.507812 470.101562 Z M -80.785156 467.003906 L 111.183594 577.832031 L 303.148438 467.003906 L 303.148438 245.335938 L 111.183594 134.507812 L -80.785156 245.335938 Z M -80.785156 467.003906 " fill-opacity="1" fill-rule="nonzero"/><path fill="#5e17eb" d="M 500.476562 584.023438 L 303.148438 470.101562 L 303.148438 242.25 L 500.476562 128.324219 L 697.800781 242.25 L 697.800781 470.101562 Z M 308.507812 467.003906 L 500.476562 577.832031 L 692.441406 467.003906 L 692.441406 245.335938 L 500.476562 134.507812 L 308.507812 245.335938 Z M 308.507812 467.003906 " fill-opacity="1" fill-rule="nonzero"/><path fill="#5e17eb" d="M 889.769531 584.023438 L 692.441406 470.101562 L 692.441406 242.25 L 889.769531 128.324219 L 1087.09375 242.25 L 1087.09375 470.101562 Z M 697.800781 467.003906 L 889.769531 577.832031 L 1081.734375 467.003906 L 1081.734375 245.335938 L 889.769531 134.507812 L 697.800781 245.335938 Z M 697.800781 467.003906 " fill-opacity="1" fill-rule="nonzero"/><path fill="#5e17eb" d="M 1279.050781 584.023438 L 1081.726562 470.101562 L 1081.726562 242.25 L 1279.050781 128.324219 L 1476.375 242.25 L 1476.375 470.101562 Z M 1087.09375 467.003906 L 1279.0625 577.832031 L 1471.027344 467.003906 L 1471.027344 245.335938 L 1279.0625 134.507812 L 1087.09375 245.335938 Z M 1087.09375 467.003906 " fill-opacity="1" fill-rule="nonzero"/><path fill="#5e17eb" d="M 1668.34375 584.023438 L 1471.019531 470.101562 L 1471.019531 242.25 L 1668.34375 128.324219 L 1865.667969 242.25 L 1865.667969 470.101562 Z M 1476.375 467.003906 L 1668.34375 577.832031 L 1860.3125 467.003906 L 1860.3125 245.335938 L 1668.34375 134.507812 L 1476.375 245.335938 Z M 1476.375 467.003906 " fill-opacity="1" fill-rule="nonzero"/><path fill="#5e17eb" d="M -83.464844 246.890625 L -280.789062 132.964844 L -280.789062 -94.886719 L -83.464844 -208.8125 L 113.859375 -94.886719 L 113.859375 132.964844 Z M -275.433594 129.867188 L -83.464844 240.695312 L 108.503906 129.867188 L 108.503906 -91.800781 L -83.464844 -202.628906 L -275.433594 -91.800781 Z M -275.433594 129.867188 " fill-opacity="1" fill-rule="nonzero"/><path fill="#5e17eb" d="M 305.828125 246.890625 L 108.503906 132.964844 L 108.503906 -94.886719 L 305.828125 -208.8125 L 503.152344 -94.886719 L 503.152344 132.964844 Z M 113.859375 129.867188 L 305.828125 240.695312 L 497.796875 129.867188 L 497.796875 -91.800781 L 305.828125 -202.628906 L 113.859375 -91.800781 Z M 113.859375 129.867188 " fill-opacity="1" fill-rule="nonzero"/><path fill="#5e17eb" d="M 695.121094 246.890625 L 497.796875 132.964844 L 497.796875 -94.886719 L 695.121094 -208.8125 L 892.445312 -94.886719 L 892.445312 132.964844 Z M 503.152344 129.867188 L 695.121094 240.695312 L 887.089844 129.867188 L 887.089844 -91.800781 L 695.121094 -202.628906 L 503.152344 -91.800781 Z M 503.152344 129.867188 " fill-opacity="1" fill-rule="nonzero"/><path fill="#5e17eb" d="M 1084.414062 246.890625 L 887.089844 132.964844 L 887.089844 -94.886719 L 1084.414062 -208.8125 L 1281.738281 -94.886719 L 1281.738281 132.964844 Z M 892.445312 129.867188 L 1084.414062 240.695312 L 1276.382812 129.867188 L 1276.382812 -91.800781 L 1084.414062 -202.628906 L 892.445312 -91.800781 Z M 892.445312 129.867188 " fill-opacity="1" fill-rule="nonzero"/><path fill="#5e17eb" d="M 1473.695312 246.890625 L 1276.371094 132.964844 L 1276.371094 -94.886719 L 1473.695312 -208.8125 L 1671.023438 -94.886719 L 1671.023438 132.964844 Z M 1281.730469 129.867188 L 1473.695312 240.695312 L 1665.664062 129.867188 L 1665.664062 -91.800781 L 1473.695312 -202.628906 L 1281.730469 -91.800781 Z M 1281.730469 129.867188 " fill-opacity="1" fill-rule="nonzero"/><path fill="#5e17eb" d="M 1862.988281 246.890625 L 1665.664062 132.964844 L 1665.664062 -94.886719 L 1862.988281 -208.8125 L 2060.3125 -94.886719 L 2060.3125 132.964844 Z M 1671.019531 129.867188 L 1862.988281 240.695312 L 2054.957031 129.867188 L 2054.957031 -91.800781 L 1862.988281 -202.628906 L 1671.019531 -91.800781 Z M 1671.019531 129.867188 " fill-opacity="1" fill-rule="nonzero"/><path fill="#5e17eb" d="M 2057.636719 3958.8125 L 1860.3125 3844.886719 L 1860.3125 3617.035156 L 2057.636719 3503.109375 L 2254.960938 3617.035156 L 2254.960938 3844.886719 Z M 1865.667969 3841.800781 L 2057.636719 3952.628906 L 2249.605469 3841.800781 L 2249.605469 3620.132812 L 2057.636719 3509.304688 L 1865.667969 3620.132812 Z M 1865.667969 3841.800781 " fill-opacity="1" fill-rule="nonzero"/><path fill="#5e17eb" d="M 2446.929688 3958.8125 L 2249.605469 3844.886719 L 2249.605469 3617.035156 L 2446.929688 3503.109375 L 2644.253906 3617.035156 L 2644.253906 3844.886719 Z M 2254.960938 3841.800781 L 2446.929688 3952.628906 L 2638.894531 3841.800781 L 2638.894531 3620.132812 L 2446.929688 3509.304688 L 2254.960938 3620.132812 Z M 2254.960938 3841.800781 " fill-opacity="1" fill-rule="nonzero"/><path fill="#5e17eb" d="M 2836.222656 3958.8125 L 2638.894531 3844.886719 L 2638.894531 3617.035156 L 2836.222656 3503.109375 L 3033.546875 3617.035156 L 3033.546875 3844.886719 Z M 2644.253906 3841.800781 L 2836.222656 3952.628906 L 3028.1875 3841.800781 L 3028.1875 3620.132812 L 2836.222656 3509.304688 L 2644.253906 3620.132812 Z M 2644.253906 3841.800781 " fill-opacity="1" fill-rule="nonzero"/><path fill="#5e17eb" d="M 3225.503906 3958.8125 L 3028.179688 3844.886719 L 3028.179688 3617.035156 L 3225.503906 3503.109375 L 3422.828125 3617.035156 L 3422.828125 3844.886719 Z M 3033.535156 3841.800781 L 3225.503906 3952.628906 L 3417.472656 3841.800781 L 3417.472656 3620.132812 L 3225.503906 3509.304688 L 3033.535156 3620.132812 Z M 3033.535156 3841.800781 " fill-opacity="1" fill-rule="nonzero"/><path fill="#5e17eb" d="M 3614.796875 3958.8125 L 3417.472656 3844.886719 L 3417.472656 3617.035156 L 3614.796875 3503.109375 L 3812.121094 3617.035156 L 3812.121094 3844.886719 Z M 3422.828125 3841.800781 L 3614.796875 3952.628906 L 3806.765625 3841.800781 L 3806.765625 3620.132812 L 3614.796875 3509.304688 L 3422.828125 3620.132812 Z M 3422.828125 3841.800781 " fill-opacity="1" fill-rule="nonzero"/><path fill="#5e17eb" d="M 2252.28125 3621.675781 L 2054.957031 3507.75 L 2054.957031 3279.898438 L 2252.28125 3165.976562 L 2449.605469 3279.898438 L 2449.605469 3507.75 Z M 2060.3125 3504.664062 L 2252.28125 3615.492188 L 2444.25 3504.664062 L 2444.25 3282.996094 L 2252.28125 3172.167969 L 2060.3125 3282.996094 Z M 2060.3125 3504.664062 " fill-opacity="1" fill-rule="nonzero"/><path fill="#5e17eb" d="M 2641.574219 3621.675781 L 2444.25 3507.75 L 2444.25 3279.898438 L 2641.574219 3165.976562 L 2838.898438 3279.898438 L 2838.898438 3507.75 Z M 2449.605469 3504.664062 L 2641.574219 3615.492188 L 2833.542969 3504.664062 L 2833.542969 3282.996094 L 2641.574219 3172.167969 L 2449.605469 3282.996094 Z M 2449.605469 3504.664062 " fill-opacity="1" fill-rule="nonzero"/><path fill="#5e17eb" d="M 3030.855469 3621.675781 L 2833.53125 3507.75 L 2833.53125 3279.898438 L 3030.855469 3165.976562 L 3228.183594 3279.898438 L 3228.183594 3507.75 Z M 2838.898438 3504.664062 L 3030.867188 3615.492188 L 3222.835938 3504.664062 L 3222.835938 3282.996094 L 3030.867188 3172.167969 L 2838.898438 3282.996094 Z M 2838.898438 3504.664062 " fill-opacity="1" fill-rule="nonzero"/><path fill="#5e17eb" d="M 3420.148438 3621.675781 L 3222.824219 3507.75 L 3222.824219 3279.898438 L 3420.148438 3165.976562 L 3617.476562 3279.898438 L 3617.476562 3507.75 Z M 3228.183594 3504.664062 L 3420.148438 3615.492188 L 3612.117188 3504.664062 L 3612.117188 3282.996094 L 3420.148438 3172.167969 L 3228.183594 3282.996094 Z M 3228.183594 3504.664062 " fill-opacity="1" fill-rule="nonzero"/><path fill="#5e17eb" d="M 3809.441406 3621.675781 L 3612.117188 3507.75 L 3612.117188 3279.898438 L 3809.441406 3165.976562 L 4006.769531 3279.898438 L 4006.769531 3507.75 Z M 3617.476562 3504.664062 L 3809.441406 3615.492188 L 4001.410156 3504.664062 L 4001.410156 3282.996094 L 3809.441406 3172.167969 L 3617.476562 3282.996094 Z M 3617.476562 3504.664062 " fill-opacity="1" fill-rule="nonzero"/><path fill="#5e17eb" d="M 2057.636719 3283.855469 L 1860.3125 3169.929688 L 1860.3125 2942.078125 L 2057.636719 2828.152344 L 2254.960938 2942.078125 L 2254.960938 3169.929688 Z M 1865.667969 3166.84375 L 2057.636719 3277.671875 L 2249.605469 3166.84375 L 2249.605469 2945.175781 L 2057.636719 2834.347656 L 1865.667969 2945.175781 Z M 1865.667969 3166.84375 " fill-opacity="1" fill-rule="nonzero"/><path fill="#5e17eb" d="M 2446.929688 3283.855469 L 2249.605469 3169.929688 L 2249.605469 2942.078125 L 2446.929688 2828.152344 L 2644.253906 2942.078125 L 2644.253906 3169.929688 Z M 2254.960938 3166.84375 L 2446.929688 3277.671875 L 2638.894531 3166.84375 L 2638.894531 2945.175781 L 2446.929688 2834.347656 L 2254.960938 2945.175781 Z M 2254.960938 3166.84375 " fill-opacity="1" fill-rule="nonzero"/><path fill="#5e17eb" d="M 2836.222656 3283.855469 L 2638.894531 3169.929688 L 2638.894531 2942.078125 L 2836.222656 2828.152344 L 3033.546875 2942.078125 L 3033.546875 3169.929688 Z M 2644.253906 3166.84375 L 2836.222656 3277.671875 L 3028.1875 3166.84375 L 3028.1875 2945.175781 L 2836.222656 2834.347656 L 2644.253906 2945.175781 Z M 2644.253906 3166.84375 " fill-opacity="1" fill-rule="nonzero"/><path fill="#5e17eb" d="M 3225.503906 3283.855469 L 3028.179688 3169.929688 L 3028.179688 2942.078125 L 3225.503906 2828.152344 L 3422.828125 2942.078125 L 3422.828125 3169.929688 Z M 3033.535156 3166.84375 L 3225.503906 3277.671875 L 3417.472656 3166.84375 L 3417.472656 2945.175781 L 3225.503906 2834.347656 L 3033.535156 2945.175781 Z M 3033.535156 3166.84375 " fill-opacity="1" fill-rule="nonzero"/><path fill="#5e17eb" d="M 3614.796875 3283.855469 L 3417.472656 3169.929688 L 3417.472656 2942.078125 L 3614.796875 2828.152344 L 3812.121094 2942.078125 L 3812.121094 3169.929688 Z M 3422.828125 3166.84375 L 3614.796875 3277.671875 L 3806.765625 3166.84375 L 3806.765625 2945.175781 L 3614.796875 2834.347656 L 3422.828125 2945.175781 Z M 3422.828125 3166.84375 " fill-opacity="1" fill-rule="nonzero"/><path fill="#5e17eb" d="M 2252.28125 2946.71875 L 2054.957031 2832.792969 L 2054.957031 2604.941406 L 2252.28125 2491.019531 L 2449.605469 2604.941406 L 2449.605469 2832.792969 Z M 2060.3125 2829.707031 L 2252.28125 2940.535156 L 2444.25 2829.707031 L 2444.25 2608.039062 L 2252.28125 2497.210938 L 2060.3125 2608.039062 Z M 2060.3125 2829.707031 " fill-opacity="1" fill-rule="nonzero"/><path fill="#5e17eb" d="M 2641.574219 2946.71875 L 2444.25 2832.792969 L 2444.25 2604.941406 L 2641.574219 2491.019531 L 2838.898438 2604.941406 L 2838.898438 2832.792969 Z M 2449.605469 2829.707031 L 2641.574219 2940.535156 L 2833.542969 2829.707031 L 2833.542969 2608.039062 L 2641.574219 2497.210938 L 2449.605469 2608.039062 Z M 2449.605469 2829.707031 " fill-opacity="1" fill-rule="nonzero"/><path fill="#5e17eb" d="M 3030.855469 2946.71875 L 2833.53125 2832.792969 L 2833.53125 2604.941406 L 3030.855469 2491.019531 L 3228.183594 2604.941406 L 3228.183594 2832.792969 Z M 2838.898438 2829.707031 L 3030.867188 2940.535156 L 3222.835938 2829.707031 L 3222.835938 2608.039062 L 3030.867188 2497.210938 L 2838.898438 2608.039062 Z M 2838.898438 2829.707031 " fill-opacity="1" fill-rule="nonzero"/><path fill="#5e17eb" d="M 3420.148438 2946.71875 L 3222.824219 2832.792969 L 3222.824219 2604.941406 L 3420.148438 2491.019531 L 3617.476562 2604.941406 L 3617.476562 2832.792969 Z M 3228.183594 2829.707031 L 3420.148438 2940.535156 L 3612.117188 2829.707031 L 3612.117188 2608.039062 L 3420.148438 2497.210938 L 3228.183594 2608.039062 Z M 3228.183594 2829.707031 " fill-opacity="1" fill-rule="nonzero"/><path fill="#5e17eb" d="M 3809.441406 2946.71875 L 3612.117188 2832.792969 L 3612.117188 2604.941406 L 3809.441406 2491.019531 L 4006.769531 2604.941406 L 4006.769531 2832.792969 Z M 3617.476562 2829.707031 L 3809.441406 2940.535156 L 4001.410156 2829.707031 L 4001.410156 2608.039062 L 3809.441406 2497.210938 L 3617.476562 2608.039062 Z M 3617.476562 2829.707031 " fill-opacity="1" fill-rule="nonzero"/><path fill="#5e17eb" d="M 2057.636719 2608.898438 L 1860.3125 2494.972656 L 1860.3125 2267.121094 L 2057.636719 2153.195312 L 2254.960938 2267.121094 L 2254.960938 2494.972656 Z M 1865.667969 2491.875 L 2057.636719 2602.703125 L 2249.605469 2491.875 L 2249.605469 2270.207031 L 2057.636719 2159.378906 L 1865.667969 2270.207031 Z M 1865.667969 2491.875 " fill-opacity="1" fill-rule="nonzero"/><path fill="#5e17eb" d="M 2446.929688 2608.898438 L 2249.605469 2494.972656 L 2249.605469 2267.121094 L 2446.929688 2153.195312 L 2644.253906 2267.121094 L 2644.253906 2494.972656 Z M 2254.960938 2491.875 L 2446.929688 2602.703125 L 2638.894531 2491.875 L 2638.894531 2270.207031 L 2446.929688 2159.378906 L 2254.960938 2270.207031 Z M 2254.960938 2491.875 " fill-opacity="1" fill-rule="nonzero"/><path fill="#5e17eb" d="M 2836.222656 2608.898438 L 2638.894531 2494.972656 L 2638.894531 2267.121094 L 2836.222656 2153.195312 L 3033.546875 2267.121094 L 3033.546875 2494.972656 Z M 2644.253906 2491.875 L 2836.222656 2602.703125 L 3028.1875 2491.875 L 3028.1875 2270.207031 L 2836.222656 2159.378906 L 2644.253906 2270.207031 Z M 2644.253906 2491.875 " fill-opacity="1" fill-rule="nonzero"/><path fill="#5e17eb" d="M 3225.503906 2608.898438 L 3028.179688 2494.972656 L 3028.179688 2267.121094 L 3225.503906 2153.195312 L 3422.828125 2267.121094 L 3422.828125 2494.972656 Z M 3033.535156 2491.875 L 3225.503906 2602.703125 L 3417.472656 2491.875 L 3417.472656 2270.207031 L 3225.503906 2159.378906 L 3033.535156 2270.207031 Z M 3033.535156 2491.875 " fill-opacity="1" fill-rule="nonzero"/><path fill="#5e17eb" d="M 3614.796875 2608.898438 L 3417.472656 2494.972656 L 3417.472656 2267.121094 L 3614.796875 2153.195312 L 3812.121094 2267.121094 L 3812.121094 2494.972656 Z M 3422.828125 2491.875 L 3614.796875 2602.703125 L 3806.765625 2491.875 L 3806.765625 2270.207031 L 3614.796875 2159.378906 L 3422.828125 2270.207031 Z M 3422.828125 2491.875 " fill-opacity="1" fill-rule="nonzero"/><path fill="#5e17eb" d="M 2252.28125 2271.761719 L 2054.957031 2157.835938 L 2054.957031 1929.984375 L 2252.28125 1816.0625 L 2449.605469 1929.984375 L 2449.605469 2157.835938 Z M 2060.3125 2154.738281 L 2252.28125 2265.566406 L 2444.25 2154.738281 L 2444.25 1933.070312 L 2252.28125 1822.242188 L 2060.3125 1933.070312 Z M 2060.3125 2154.738281 " fill-opacity="1" fill-rule="nonzero"/><path fill="#5e17eb" d="M 2641.574219 2271.761719 L 2444.25 2157.835938 L 2444.25 1929.984375 L 2641.574219 1816.0625 L 2838.898438 1929.984375 L 2838.898438 2157.835938 Z M 2449.605469 2154.738281 L 2641.574219 2265.566406 L 2833.542969 2154.738281 L 2833.542969 1933.070312 L 2641.574219 1822.242188 L 2449.605469 1933.070312 Z M 2449.605469 2154.738281 " fill-opacity="1" fill-rule="nonzero"/><path fill="#5e17eb" d="M 3030.855469 2271.761719 L 2833.53125 2157.835938 L 2833.53125 1929.984375 L 3030.855469 1816.0625 L 3228.183594 1929.984375 L 3228.183594 2157.835938 Z M 2838.898438 2154.738281 L 3030.867188 2265.566406 L 3222.835938 2154.738281 L 3222.835938 1933.070312 L 3030.867188 1822.242188 L 2838.898438 1933.070312 Z M 2838.898438 2154.738281 " fill-opacity="1" fill-rule="nonzero"/><path fill="#5e17eb" d="M 3420.148438 2271.761719 L 3222.824219 2157.835938 L 3222.824219 1929.984375 L 3420.148438 1816.0625 L 3617.476562 1929.984375 L 3617.476562 2157.835938 Z M 3228.183594 2154.738281 L 3420.148438 2265.566406 L 3612.117188 2154.738281 L 3612.117188 1933.070312 L 3420.148438 1822.242188 L 3228.183594 1933.070312 Z M 3228.183594 2154.738281 " fill-opacity="1" fill-rule="nonzero"/><path fill="#5e17eb" d="M 3809.441406 2271.761719 L 3612.117188 2157.835938 L 3612.117188 1929.984375 L 3809.441406 1816.0625 L 4006.769531 1929.984375 L 4006.769531 2157.835938 Z M 3617.476562 2154.738281 L 3809.441406 2265.566406 L 4001.410156 2154.738281 L 4001.410156 1933.070312 L 3809.441406 1822.242188 L 3617.476562 1933.070312 Z M 3617.476562 2154.738281 " fill-opacity="1" fill-rule="nonzero"/><path fill="#5e17eb" d="M 2057.636719 1933.9375 L 1860.3125 1820.015625 L 1860.3125 1592.164062 L 2057.636719 1478.238281 L 2254.960938 1592.164062 L 2254.960938 1820.015625 Z M 1865.667969 1816.917969 L 2057.636719 1927.746094 L 2249.605469 1816.917969 L 2249.605469 1595.25 L 2057.636719 1484.421875 L 1865.667969 1595.25 Z M 1865.667969 1816.917969 " fill-opacity="1" fill-rule="nonzero"/><path fill="#5e17eb" d="M 2446.929688 1933.9375 L 2249.605469 1820.015625 L 2249.605469 1592.164062 L 2446.929688 1478.238281 L 2644.253906 1592.164062 L 2644.253906 1820.015625 Z M 2254.960938 1816.917969 L 2446.929688 1927.746094 L 2638.894531 1816.917969 L 2638.894531 1595.25 L 2446.929688 1484.421875 L 2254.960938 1595.25 Z M 2254.960938 1816.917969 " fill-opacity="1" fill-rule="nonzero"/><path fill="#5e17eb" d="M 2836.222656 1933.9375 L 2638.894531 1820.015625 L 2638.894531 1592.164062 L 2836.222656 1478.238281 L 3033.546875 1592.164062 L 3033.546875 1820.015625 Z M 2644.253906 1816.917969 L 2836.222656 1927.746094 L 3028.1875 1816.917969 L 3028.1875 1595.25 L 2836.222656 1484.421875 L 2644.253906 1595.25 Z M 2644.253906 1816.917969 " fill-opacity="1" fill-rule="nonzero"/><path fill="#5e17eb" d="M 3225.503906 1933.9375 L 3028.179688 1820.015625 L 3028.179688 1592.164062 L 3225.503906 1478.238281 L 3422.828125 1592.164062 L 3422.828125 1820.015625 Z M 3033.535156 1816.917969 L 3225.503906 1927.746094 L 3417.472656 1816.917969 L 3417.472656 1595.25 L 3225.503906 1484.421875 L 3033.535156 1595.25 Z M 3033.535156 1816.917969 " fill-opacity="1" fill-rule="nonzero"/><path fill="#5e17eb" d="M 3614.796875 1933.9375 L 3417.472656 1820.015625 L 3417.472656 1592.164062 L 3614.796875 1478.238281 L 3812.121094 1592.164062 L 3812.121094 1820.015625 Z M 3422.828125 1816.917969 L 3614.796875 1927.746094 L 3806.765625 1816.917969 L 3806.765625 1595.25 L 3614.796875 1484.421875 L 3422.828125 1595.25 Z M 3422.828125 1816.917969 " fill-opacity="1" fill-rule="nonzero"/><path fill="#5e17eb" d="M 2252.28125 1596.804688 L 2054.957031 1482.878906 L 2054.957031 1255.027344 L 2252.28125 1141.105469 L 2449.605469 1255.027344 L 2449.605469 1482.878906 Z M 2060.3125 1479.78125 L 2252.28125 1590.609375 L 2444.25 1479.78125 L 2444.25 1258.113281 L 2252.28125 1147.285156 L 2060.3125 1258.113281 Z M 2060.3125 1479.78125 " fill-opacity="1" fill-rule="nonzero"/><path fill="#5e17eb" d="M 2641.574219 1596.804688 L 2444.25 1482.878906 L 2444.25 1255.027344 L 2641.574219 1141.105469 L 2838.898438 1255.027344 L 2838.898438 1482.878906 Z M 2449.605469 1479.78125 L 2641.574219 1590.609375 L 2833.542969 1479.78125 L 2833.542969 1258.113281 L 2641.574219 1147.285156 L 2449.605469 1258.113281 Z M 2449.605469 1479.78125 " fill-opacity="1" fill-rule="nonzero"/><path fill="#5e17eb" d="M 3030.855469 1596.804688 L 2833.53125 1482.878906 L 2833.53125 1255.027344 L 3030.855469 1141.105469 L 3228.183594 1255.027344 L 3228.183594 1482.878906 Z M 2838.898438 1479.78125 L 3030.867188 1590.609375 L 3222.835938 1479.78125 L 3222.835938 1258.113281 L 3030.855469 1147.285156 L 2838.890625 1258.113281 L 2838.890625 1479.78125 Z M 2838.898438 1479.78125 " fill-opacity="1" fill-rule="nonzero"/><path fill="#5e17eb" d="M 3420.148438 1596.804688 L 3222.824219 1482.878906 L 3222.824219 1255.027344 L 3420.148438 1141.105469 L 3617.476562 1255.027344 L 3617.476562 1482.878906 Z M 3228.183594 1479.78125 L 3420.148438 1590.609375 L 3612.117188 1479.78125 L 3612.117188 1258.113281 L 3420.148438 1147.285156 L 3228.183594 1258.113281 Z M 3228.183594 1479.78125 " fill-opacity="1" fill-rule="nonzero"/><path fill="#5e17eb" d="M 3809.441406 1596.804688 L 3612.117188 1482.878906 L 3612.117188 1255.027344 L 3809.441406 1141.105469 L 4006.769531 1255.027344 L 4006.769531 1482.878906 Z M 3617.476562 1479.78125 L 3809.441406 1590.609375 L 4001.410156 1479.78125 L 4001.410156 1258.113281 L 3809.441406 1147.285156 L 3617.476562 1258.113281 Z M 3617.476562 1479.78125 " fill-opacity="1" fill-rule="nonzero"/><path fill="#5e17eb" d="M 2057.636719 1258.980469 L 1860.3125 1145.058594 L 1860.3125 917.207031 L 2057.636719 803.28125 L 2254.960938 917.207031 L 2254.960938 1145.058594 Z M 1865.667969 1141.960938 L 2057.636719 1252.789062 L 2249.605469 1141.960938 L 2249.605469 920.292969 L 2057.636719 809.464844 L 1865.667969 920.292969 Z M 1865.667969 1141.960938 " fill-opacity="1" fill-rule="nonzero"/><path fill="#5e17eb" d="M 2446.929688 1258.980469 L 2249.605469 1145.058594 L 2249.605469 917.207031 L 2446.929688 803.28125 L 2644.253906 917.207031 L 2644.253906 1145.058594 Z M 2254.960938 1141.960938 L 2446.929688 1252.789062 L 2638.894531 1141.960938 L 2638.894531 920.292969 L 2446.929688 809.464844 L 2254.960938 920.292969 Z M 2254.960938 1141.960938 " fill-opacity="1" fill-rule="nonzero"/><path fill="#5e17eb" d="M 2836.222656 1258.980469 L 2638.894531 1145.058594 L 2638.894531 917.207031 L 2836.222656 803.28125 L 3033.546875 917.207031 L 3033.546875 1145.058594 Z M 2644.253906 1141.960938 L 2836.222656 1252.789062 L 3028.1875 1141.960938 L 3028.1875 920.292969 L 2836.222656 809.464844 L 2644.253906 920.292969 Z M 2644.253906 1141.960938 " fill-opacity="1" fill-rule="nonzero"/><path fill="#5e17eb" d="M 3225.503906 1258.980469 L 3028.179688 1145.058594 L 3028.179688 917.207031 L 3225.503906 803.28125 L 3422.828125 917.207031 L 3422.828125 1145.058594 Z M 3033.535156 1141.960938 L 3225.503906 1252.789062 L 3417.472656 1141.960938 L 3417.472656 920.292969 L 3225.503906 809.464844 L 3033.535156 920.292969 Z M 3033.535156 1141.960938 " fill-opacity="1" fill-rule="nonzero"/><path fill="#5e17eb" d="M 3614.796875 1258.980469 L 3417.472656 1145.058594 L 3417.472656 917.207031 L 3614.796875 803.28125 L 3812.121094 917.207031 L 3812.121094 1145.058594 Z M 3422.828125 1141.960938 L 3614.796875 1252.789062 L 3806.765625 1141.960938 L 3806.765625 920.292969 L 3614.796875 809.464844 L 3422.828125 920.292969 Z M 3422.828125 1141.960938 " fill-opacity="1" fill-rule="nonzero"/><path fill="#5e17eb" d="M 2252.28125 921.847656 L 2054.957031 807.921875 L 2054.957031 580.070312 L 2252.28125 466.148438 L 2449.605469 580.070312 L 2449.605469 807.921875 Z M 2060.3125 804.824219 L 2252.28125 915.652344 L 2444.25 804.824219 L 2444.25 583.15625 L 2252.28125 472.328125 L 2060.3125 583.15625 Z M 2060.3125 804.824219 " fill-opacity="1" fill-rule="nonzero"/><path fill="#5e17eb" d="M 2641.574219 921.847656 L 2444.25 807.921875 L 2444.25 580.070312 L 2641.574219 466.148438 L 2838.898438 580.070312 L 2838.898438 807.921875 Z M 2449.605469 804.824219 L 2641.574219 915.652344 L 2833.542969 804.824219 L 2833.542969 583.15625 L 2641.574219 472.328125 L 2449.605469 583.15625 Z M 2449.605469 804.824219 " fill-opacity="1" fill-rule="nonzero"/><path fill="#5e17eb" d="M 3030.855469 921.847656 L 2833.53125 807.921875 L 2833.53125 580.070312 L 3030.855469 466.148438 L 3228.183594 580.070312 L 3228.183594 807.921875 Z M 2838.898438 804.824219 L 3030.867188 915.652344 L 3222.835938 804.824219 L 3222.835938 583.15625 L 3030.855469 472.328125 L 2838.890625 583.15625 L 2838.890625 804.824219 Z M 2838.898438 804.824219 " fill-opacity="1" fill-rule="nonzero"/><path fill="#5e17eb" d="M 3420.148438 921.847656 L 3222.824219 807.921875 L 3222.824219 580.070312 L 3420.148438 466.148438 L 3617.476562 580.070312 L 3617.476562 807.921875 Z M 3228.183594 804.824219 L 3420.148438 915.652344 L 3612.117188 804.824219 L 3612.117188 583.15625 L 3420.148438 472.328125 L 3228.183594 583.15625 Z M 3228.183594 804.824219 " fill-opacity="1" fill-rule="nonzero"/><path fill="#5e17eb" d="M 3809.441406 921.847656 L 3612.117188 807.921875 L 3612.117188 580.070312 L 3809.441406 466.148438 L 4006.769531 580.070312 L 4006.769531 807.921875 Z M 3617.476562 804.824219 L 3809.441406 915.652344 L 4001.410156 804.824219 L 4001.410156 583.15625 L 3809.441406 472.328125 L 3617.476562 583.15625 Z M 3617.476562 804.824219 " fill-opacity="1" fill-rule="nonzero"/><path fill="#5e17eb" d="M 2057.636719 584.023438 L 1860.3125 470.101562 L 1860.3125 242.25 L 2057.636719 128.324219 L 2254.960938 242.25 L 2254.960938 470.101562 Z M 1865.667969 467.003906 L 2057.636719 577.832031 L 2249.605469 467.003906 L 2249.605469 245.335938 L 2057.636719 134.507812 L 1865.667969 245.335938 Z M 1865.667969 467.003906 " fill-opacity="1" fill-rule="nonzero"/><path fill="#5e17eb" d="M 2446.929688 584.023438 L 2249.605469 470.101562 L 2249.605469 242.25 L 2446.929688 128.324219 L 2644.253906 242.25 L 2644.253906 470.101562 Z M 2254.960938 467.003906 L 2446.929688 577.832031 L 2638.894531 467.003906 L 2638.894531 245.335938 L 2446.929688 134.507812 L 2254.960938 245.335938 Z M 2254.960938 467.003906 " fill-opacity="1" fill-rule="nonzero"/><path fill="#5e17eb" d="M 2836.222656 584.023438 L 2638.894531 470.101562 L 2638.894531 242.25 L 2836.222656 128.324219 L 3033.535156 242.25 L 3033.535156 470.101562 Z M 2644.253906 467.003906 L 2836.222656 577.832031 L 3028.1875 467.003906 L 3028.1875 245.335938 L 2836.222656 134.507812 L 2644.253906 245.335938 Z M 2644.253906 467.003906 " fill-opacity="1" fill-rule="nonzero"/><path fill="#5e17eb" d="M 3225.503906 584.023438 L 3028.179688 470.101562 L 3028.179688 242.25 L 3225.503906 128.324219 L 3422.828125 242.25 L 3422.828125 470.101562 Z M 3033.535156 467.003906 L 3225.503906 577.832031 L 3417.472656 467.003906 L 3417.472656 245.335938 L 3225.503906 134.507812 L 3033.535156 245.335938 Z M 3033.535156 467.003906 " fill-opacity="1" fill-rule="nonzero"/><path fill="#5e17eb" d="M 3614.796875 584.023438 L 3417.472656 470.101562 L 3417.472656 242.25 L 3614.796875 128.324219 L 3812.121094 242.25 L 3812.121094 470.101562 Z M 3422.828125 467.003906 L 3614.796875 577.832031 L 3806.765625 467.003906 L 3806.765625 245.335938 L 3614.796875 134.507812 L 3422.828125 245.335938 Z M 3422.828125 467.003906 " fill-opacity="1" fill-rule="nonzero"/><path fill="#5e17eb" d="M 2252.28125 246.890625 L 2054.957031 132.964844 L 2054.957031 -94.886719 L 2252.28125 -208.8125 L 2449.605469 -94.886719 L 2449.605469 132.964844 Z M 2060.3125 129.867188 L 2252.28125 240.695312 L 2444.25 129.867188 L 2444.25 -91.800781 L 2252.28125 -202.628906 L 2060.3125 -91.800781 Z M 2060.3125 129.867188 " fill-opacity="1" fill-rule="nonzero"/><path fill="#5e17eb" d="M 2641.574219 246.890625 L 2444.25 132.964844 L 2444.25 -94.886719 L 2641.574219 -208.8125 L 2838.898438 -94.886719 L 2838.898438 132.964844 Z M 2449.605469 129.867188 L 2641.574219 240.695312 L 2833.542969 129.867188 L 2833.542969 -91.800781 L 2641.574219 -202.628906 L 2449.605469 -91.800781 Z M 2449.605469 129.867188 " fill-opacity="1" fill-rule="nonzero"/><path fill="#5e17eb" d="M 3030.855469 246.890625 L 2833.542969 132.964844 L 2833.542969 -94.886719 L 3030.867188 -208.8125 L 3228.191406 -94.886719 L 3228.191406 132.964844 Z M 2838.898438 129.867188 L 3030.867188 240.695312 L 3222.835938 129.867188 L 3222.835938 -91.800781 L 3030.855469 -202.628906 L 2838.898438 -91.800781 Z M 2838.898438 129.867188 " fill-opacity="1" fill-rule="nonzero"/><path fill="#5e17eb" d="M 3420.148438 246.890625 L 3222.824219 132.964844 L 3222.824219 -94.886719 L 3420.148438 -208.8125 L 3617.476562 -94.886719 L 3617.476562 132.964844 Z M 3228.183594 129.867188 L 3420.148438 240.695312 L 3612.117188 129.867188 L 3612.117188 -91.800781 L 3420.148438 -202.628906 L 3228.183594 -91.800781 Z M 3228.183594 129.867188 " fill-opacity="1" fill-rule="nonzero"/><path fill="#5e17eb" d="M 3809.441406 246.890625 L 3612.117188 132.964844 L 3612.117188 -94.886719 L 3809.441406 -208.8125 L 4006.769531 -94.886719 L 4006.769531 132.964844 Z M 3617.476562 129.867188 L 3809.441406 240.695312 L 4001.410156 129.867188 L 4001.410156 -91.800781 L 3809.441406 -202.628906 L 3617.476562 -91.800781 Z M 3617.476562 129.867188 " fill-opacity="1" fill-rule="nonzero"/></svg>