<svg xmlns="http://www.w3.org/2000/svg" xmlns:xlink="http://www.w3.org/1999/xlink" width="5000" zoomAndPan="magnify" viewBox="0 0 3750 3749.999967" height="5000" preserveAspectRatio="xMidYMid meet" version="1.0"><defs><clipPath id="ebcc40ae3d"><path d="M 1147 701 L 1505 701 L 1505 1027 L 1147 1027 Z M 1147 701 " clip-rule="nonzero"/></clipPath><clipPath id="c1a6f2ad38"><path d="M 935.699219 204.40625 L 2098.078125 997.625 L 1479.40625 1904.226562 L 317.027344 1111.011719 Z M 935.699219 204.40625 " clip-rule="nonzero"/></clipPath><clipPath id="58e1b80e16"><path d="M 935.699219 204.40625 L 2098.078125 997.625 L 1479.40625 1904.226562 L 317.027344 1111.011719 Z M 935.699219 204.40625 " clip-rule="nonzero"/></clipPath><clipPath id="085c9a2d8f"><path d="M 1134 688 L 1517 688 L 1517 1040 L 1134 1040 Z M 1134 688 " clip-rule="nonzero"/></clipPath><clipPath id="d432ee41fe"><path d="M 935.699219 204.40625 L 2098.078125 997.625 L 1479.40625 1904.226562 L 317.027344 1111.011719 Z M 935.699219 204.40625 " clip-rule="nonzero"/></clipPath><clipPath id="9a8ccc1637"><path d="M 935.699219 204.40625 L 2098.078125 997.625 L 1479.40625 1904.226562 L 317.027344 1111.011719 Z M 935.699219 204.40625 " clip-rule="nonzero"/></clipPath><clipPath id="9a3500b9cd"><path d="M 853 824 L 1447 824 L 1447 1450 L 853 1450 Z M 853 824 " clip-rule="nonzero"/></clipPath><clipPath id="771a0a2888"><path d="M 935.699219 204.40625 L 2098.078125 997.625 L 1479.40625 1904.226562 L 317.027344 1111.011719 Z M 935.699219 204.40625 " clip-rule="nonzero"/></clipPath><clipPath id="adba618116"><path d="M 935.699219 204.40625 L 2098.078125 997.625 L 1479.40625 1904.226562 L 317.027344 1111.011719 Z M 935.699219 204.40625 " clip-rule="nonzero"/></clipPath><clipPath id="406321a426"><path d="M 834 820 L 1452 820 L 1452 1511 L 834 1511 Z M 834 820 " clip-rule="nonzero"/></clipPath><clipPath id="e058c77dea"><path d="M 935.699219 204.40625 L 2098.078125 997.625 L 1479.40625 1904.226562 L 317.027344 1111.011719 Z M 935.699219 204.40625 " clip-rule="nonzero"/></clipPath><clipPath id="fa99baf3e1"><path d="M 935.699219 204.40625 L 2098.078125 997.625 L 1479.40625 1904.226562 L 317.027344 1111.011719 Z M 935.699219 204.40625 " clip-rule="nonzero"/></clipPath><clipPath id="c809ea826b"><path d="M 1089.335938 707.28125 L 1566.273438 1032.746094 L 1133 1667.671875 L 656.0625 1342.207031 Z M 1089.335938 707.28125 " clip-rule="nonzero"/></clipPath><clipPath id="514004517e"><path d="M 856 1062 L 1325 1062 L 1325 1419 L 856 1419 Z M 856 1062 " clip-rule="nonzero"/></clipPath><clipPath id="f6fde53ae3"><path d="M 935.699219 204.40625 L 2098.078125 997.625 L 1479.40625 1904.226562 L 317.027344 1111.011719 Z M 935.699219 204.40625 " clip-rule="nonzero"/></clipPath><clipPath id="69818b6965"><path d="M 935.699219 204.40625 L 2098.078125 997.625 L 1479.40625 1904.226562 L 317.027344 1111.011719 Z M 935.699219 204.40625 " clip-rule="nonzero"/></clipPath><clipPath id="0b6baaf79a"><path d="M 924 864 L 1435 864 L 1435 1266 L 924 1266 Z M 924 864 " clip-rule="nonzero"/></clipPath><clipPath id="eeb571c63e"><path d="M 935.699219 204.40625 L 2098.078125 997.625 L 1479.40625 1904.226562 L 317.027344 1111.011719 Z M 935.699219 204.40625 " clip-rule="nonzero"/></clipPath><clipPath id="e6215b69ff"><path d="M 935.699219 204.40625 L 2098.078125 997.625 L 1479.40625 1904.226562 L 317.027344 1111.011719 Z M 935.699219 204.40625 " clip-rule="nonzero"/></clipPath><clipPath id="0330b385f1"><path d="M 1216 471 L 1375 471 L 1375 724 L 1216 724 Z M 1216 471 " clip-rule="nonzero"/></clipPath><clipPath id="ba21d1f091"><path d="M 935.699219 204.40625 L 2098.078125 997.625 L 1479.40625 1904.226562 L 317.027344 1111.011719 Z M 935.699219 204.40625 " clip-rule="nonzero"/></clipPath><clipPath id="3dd4a3f761"><path d="M 935.699219 204.40625 L 2098.078125 997.625 L 1479.40625 1904.226562 L 317.027344 1111.011719 Z M 935.699219 204.40625 " clip-rule="nonzero"/></clipPath><clipPath id="7561a2ed68"><path d="M 1208 455 L 1312 455 L 1312 542 L 1208 542 Z M 1208 455 " clip-rule="nonzero"/></clipPath><clipPath id="a87d1411ab"><path d="M 935.699219 204.40625 L 2098.078125 997.625 L 1479.40625 1904.226562 L 317.027344 1111.011719 Z M 935.699219 204.40625 " clip-rule="nonzero"/></clipPath><clipPath id="636f838fb2"><path d="M 935.699219 204.40625 L 2098.078125 997.625 L 1479.40625 1904.226562 L 317.027344 1111.011719 Z M 935.699219 204.40625 " clip-rule="nonzero"/></clipPath><clipPath id="03128be6e2"><path d="M 1463 708 L 1726 708 L 1726 837 L 1463 837 Z M 1463 708 " clip-rule="nonzero"/></clipPath><clipPath id="4ce6d58c8c"><path d="M 935.699219 204.40625 L 2098.078125 997.625 L 1479.40625 1904.226562 L 317.027344 1111.011719 Z M 935.699219 204.40625 " clip-rule="nonzero"/></clipPath><clipPath id="70c233ccfb"><path d="M 935.699219 204.40625 L 2098.078125 997.625 L 1479.40625 1904.226562 L 317.027344 1111.011719 Z M 935.699219 204.40625 " clip-rule="nonzero"/></clipPath><clipPath id="908903e02e"><path d="M 1659 747 L 1742 747 L 1742 853 L 1659 853 Z M 1659 747 " clip-rule="nonzero"/></clipPath><clipPath id="ee4ae2b3f7"><path d="M 935.699219 204.40625 L 2098.078125 997.625 L 1479.40625 1904.226562 L 317.027344 1111.011719 Z M 935.699219 204.40625 " clip-rule="nonzero"/></clipPath><clipPath id="ba524a1676"><path d="M 935.699219 204.40625 L 2098.078125 997.625 L 1479.40625 1904.226562 L 317.027344 1111.011719 Z M 935.699219 204.40625 " clip-rule="nonzero"/></clipPath><clipPath id="dda8ea1ac9"><path d="M 1265 1112 L 1613 1112 L 1613 1495 L 1265 1495 Z M 1265 1112 " clip-rule="nonzero"/></clipPath><clipPath id="fc217ec07b"><path d="M 935.699219 204.40625 L 2098.078125 997.625 L 1479.40625 1904.226562 L 317.027344 1111.011719 Z M 935.699219 204.40625 " clip-rule="nonzero"/></clipPath><clipPath id="0d9a4e8fee"><path d="M 935.699219 204.40625 L 2098.078125 997.625 L 1479.40625 1904.226562 L 317.027344 1111.011719 Z M 935.699219 204.40625 " clip-rule="nonzero"/></clipPath><clipPath id="9062c61984"><path d="M 1252 1101 L 1624 1101 L 1624 1506 L 1252 1506 Z M 1252 1101 " clip-rule="nonzero"/></clipPath><clipPath id="7465f1088b"><path d="M 935.699219 204.40625 L 2098.078125 997.625 L 1479.40625 1904.226562 L 317.027344 1111.011719 Z M 935.699219 204.40625 " clip-rule="nonzero"/></clipPath><clipPath id="82ee828fa1"><path d="M 935.699219 204.40625 L 2098.078125 997.625 L 1479.40625 1904.226562 L 317.027344 1111.011719 Z M 935.699219 204.40625 " clip-rule="nonzero"/></clipPath><clipPath id="64bc48a591"><path d="M 1270 983 L 1866 983 L 1866 1368 L 1270 1368 Z M 1270 983 " clip-rule="nonzero"/></clipPath><clipPath id="34a7170986"><path d="M 935.699219 204.40625 L 2098.078125 997.625 L 1479.40625 1904.226562 L 317.027344 1111.011719 Z M 935.699219 204.40625 " clip-rule="nonzero"/></clipPath><clipPath id="f3ebe00f02"><path d="M 935.699219 204.40625 L 2098.078125 997.625 L 1479.40625 1904.226562 L 317.027344 1111.011719 Z M 935.699219 204.40625 " clip-rule="nonzero"/></clipPath><clipPath id="ef0daaf2fd"><path d="M 1253 972 L 1877 972 L 1877 1380 L 1253 1380 Z M 1253 972 " clip-rule="nonzero"/></clipPath><clipPath id="3ae3edd32d"><path d="M 935.699219 204.40625 L 2098.078125 997.625 L 1479.40625 1904.226562 L 317.027344 1111.011719 Z M 935.699219 204.40625 " clip-rule="nonzero"/></clipPath><clipPath id="f9d563a1b8"><path d="M 935.699219 204.40625 L 2098.078125 997.625 L 1479.40625 1904.226562 L 317.027344 1111.011719 Z M 935.699219 204.40625 " clip-rule="nonzero"/></clipPath><clipPath id="7fef902758"><path d="M 1457.738281 805.871094 L 1948.542969 1140.796875 L 1724.5 1469.105469 L 1233.699219 1134.179688 Z M 1457.738281 805.871094 " clip-rule="nonzero"/></clipPath><clipPath id="d854fe97ae"><path d="M 686 771 L 1132 771 L 1132 1051 L 686 1051 Z M 686 771 " clip-rule="nonzero"/></clipPath><clipPath id="0af681b5b4"><path d="M 935.699219 204.40625 L 2098.078125 997.625 L 1479.40625 1904.226562 L 317.027344 1111.011719 Z M 935.699219 204.40625 " clip-rule="nonzero"/></clipPath><clipPath id="ab433c6e29"><path d="M 935.699219 204.40625 L 2098.078125 997.625 L 1479.40625 1904.226562 L 317.027344 1111.011719 Z M 935.699219 204.40625 " clip-rule="nonzero"/></clipPath><clipPath id="1053e0f81a"><path d="M 675 759 L 1148 759 L 1148 1063 L 675 1063 Z M 675 759 " clip-rule="nonzero"/></clipPath><clipPath id="a8b89c9159"><path d="M 935.699219 204.40625 L 2098.078125 997.625 L 1479.40625 1904.226562 L 317.027344 1111.011719 Z M 935.699219 204.40625 " clip-rule="nonzero"/></clipPath><clipPath id="ccda61aa48"><path d="M 935.699219 204.40625 L 2098.078125 997.625 L 1479.40625 1904.226562 L 317.027344 1111.011719 Z M 935.699219 204.40625 " clip-rule="nonzero"/></clipPath><clipPath id="4dd9785c96"><path d="M 731 483 L 1153 483 L 1153 1016 L 731 1016 Z M 731 483 " clip-rule="nonzero"/></clipPath><clipPath id="5f58aed423"><path d="M 935.699219 204.40625 L 2098.078125 997.625 L 1479.40625 1904.226562 L 317.027344 1111.011719 Z M 935.699219 204.40625 " clip-rule="nonzero"/></clipPath><clipPath id="dda736a569"><path d="M 935.699219 204.40625 L 2098.078125 997.625 L 1479.40625 1904.226562 L 317.027344 1111.011719 Z M 935.699219 204.40625 " clip-rule="nonzero"/></clipPath><clipPath id="a0f680046b"><path d="M 720 472 L 1164 472 L 1164 1032 L 720 1032 Z M 720 472 " clip-rule="nonzero"/></clipPath><clipPath id="f80f837eda"><path d="M 935.699219 204.40625 L 2098.078125 997.625 L 1479.40625 1904.226562 L 317.027344 1111.011719 Z M 935.699219 204.40625 " clip-rule="nonzero"/></clipPath><clipPath id="8af3c8d28c"><path d="M 935.699219 204.40625 L 2098.078125 997.625 L 1479.40625 1904.226562 L 317.027344 1111.011719 Z M 935.699219 204.40625 " clip-rule="nonzero"/></clipPath><clipPath id="f9e5ee321a"><path d="M 2182 1288 L 2503 1288 L 2503 1649 L 2182 1649 Z M 2182 1288 " clip-rule="nonzero"/></clipPath><clipPath id="b1cb6ebc07"><path d="M 1703.773438 1887.300781 L 2444.519531 690.800781 L 3377.738281 1268.550781 L 2636.988281 2465.050781 Z M 1703.773438 1887.300781 " clip-rule="nonzero"/></clipPath><clipPath id="512191aae1"><path d="M 1703.773438 1887.300781 L 2444.519531 690.800781 L 3377.738281 1268.550781 L 2636.988281 2465.050781 Z M 1703.773438 1887.300781 " clip-rule="nonzero"/></clipPath><clipPath id="f9a986e2bd"><path d="M 2169 1276 L 2516 1276 L 2516 1661 L 2169 1661 Z M 2169 1276 " clip-rule="nonzero"/></clipPath><clipPath id="c7bb9f3e62"><path d="M 1703.773438 1887.300781 L 2444.519531 690.800781 L 3377.738281 1268.550781 L 2636.988281 2465.050781 Z M 1703.773438 1887.300781 " clip-rule="nonzero"/></clipPath><clipPath id="ca3c6373b5"><path d="M 1703.773438 1887.300781 L 2444.519531 690.800781 L 3377.738281 1268.550781 L 2636.988281 2465.050781 Z M 1703.773438 1887.300781 " clip-rule="nonzero"/></clipPath><clipPath id="89acaec00a"><path d="M 2312 1337 L 2941 1337 L 2941 1926 L 2312 1926 Z M 2312 1337 " clip-rule="nonzero"/></clipPath><clipPath id="fbed1c3e0c"><path d="M 1703.773438 1887.300781 L 2444.519531 690.800781 L 3377.738281 1268.550781 L 2636.988281 2465.050781 Z M 1703.773438 1887.300781 " clip-rule="nonzero"/></clipPath><clipPath id="a20ef838e8"><path d="M 1703.773438 1887.300781 L 2444.519531 690.800781 L 3377.738281 1268.550781 L 2636.988281 2465.050781 Z M 1703.773438 1887.300781 " clip-rule="nonzero"/></clipPath><clipPath id="e68ac60d79"><path d="M 2309 1331 L 3011 1331 L 3011 1945 L 2309 1945 Z M 2309 1331 " clip-rule="nonzero"/></clipPath><clipPath id="1bac8fb7c8"><path d="M 1703.773438 1887.300781 L 2444.519531 690.800781 L 3377.738281 1268.550781 L 2636.988281 2465.050781 Z M 1703.773438 1887.300781 " clip-rule="nonzero"/></clipPath><clipPath id="b8d51a238e"><path d="M 1703.773438 1887.300781 L 2444.519531 690.800781 L 3377.738281 1268.550781 L 2636.988281 2465.050781 Z M 1703.773438 1887.300781 " clip-rule="nonzero"/></clipPath><clipPath id="e610e36b87"><path d="M 2199.320312 1711.453125 L 2503.257812 1220.515625 L 3156.816406 1625.132812 L 2852.878906 2116.070312 Z M 2199.320312 1711.453125 " clip-rule="nonzero"/></clipPath><clipPath id="16dd6db327"><path d="M 2563 1447 L 2904 1447 L 2904 1923 L 2563 1923 Z M 2563 1447 " clip-rule="nonzero"/></clipPath><clipPath id="17cab0a511"><path d="M 1703.773438 1887.300781 L 2444.519531 690.800781 L 3377.738281 1268.550781 L 2636.988281 2465.050781 Z M 1703.773438 1887.300781 " clip-rule="nonzero"/></clipPath><clipPath id="693c9e7d76"><path d="M 1703.773438 1887.300781 L 2444.519531 690.800781 L 3377.738281 1268.550781 L 2636.988281 2465.050781 Z M 1703.773438 1887.300781 " clip-rule="nonzero"/></clipPath><clipPath id="95c246bce3"><path d="M 2358 1346 L 2744 1346 L 2744 1865 L 2358 1865 Z M 2358 1346 " clip-rule="nonzero"/></clipPath><clipPath id="3276ba5dda"><path d="M 1703.773438 1887.300781 L 2444.519531 690.800781 L 3377.738281 1268.550781 L 2636.988281 2465.050781 Z M 1703.773438 1887.300781 " clip-rule="nonzero"/></clipPath><clipPath id="e5bafa2efe"><path d="M 1703.773438 1887.300781 L 2444.519531 690.800781 L 3377.738281 1268.550781 L 2636.988281 2465.050781 Z M 1703.773438 1887.300781 " clip-rule="nonzero"/></clipPath><clipPath id="ca1ea57dcd"><path d="M 1954 1433 L 2205 1433 L 2205 1595 L 1954 1595 Z M 1954 1433 " clip-rule="nonzero"/></clipPath><clipPath id="baddfac9e0"><path d="M 1703.773438 1887.300781 L 2444.519531 690.800781 L 3377.738281 1268.550781 L 2636.988281 2465.050781 Z M 1703.773438 1887.300781 " clip-rule="nonzero"/></clipPath><clipPath id="8ed5e021dd"><path d="M 1703.773438 1887.300781 L 2444.519531 690.800781 L 3377.738281 1268.550781 L 2636.988281 2465.050781 Z M 1703.773438 1887.300781 " clip-rule="nonzero"/></clipPath><clipPath id="a58ab7ed90"><path d="M 1940 1499 L 2027 1499 L 2027 1602 L 1940 1602 Z M 1940 1499 " clip-rule="nonzero"/></clipPath><clipPath id="66eed17222"><path d="M 1703.773438 1887.300781 L 2444.519531 690.800781 L 3377.738281 1268.550781 L 2636.988281 2465.050781 Z M 1703.773438 1887.300781 " clip-rule="nonzero"/></clipPath><clipPath id="abfa71ca2b"><path d="M 1703.773438 1887.300781 L 2444.519531 690.800781 L 3377.738281 1268.550781 L 2636.988281 2465.050781 Z M 1703.773438 1887.300781 " clip-rule="nonzero"/></clipPath><clipPath id="061e977d05"><path d="M 2175 1069 L 2301 1069 L 2301 1334 L 2175 1334 Z M 2175 1069 " clip-rule="nonzero"/></clipPath><clipPath id="20825ecd1b"><path d="M 1703.773438 1887.300781 L 2444.519531 690.800781 L 3377.738281 1268.550781 L 2636.988281 2465.050781 Z M 1703.773438 1887.300781 " clip-rule="nonzero"/></clipPath><clipPath id="d60637c22b"><path d="M 1703.773438 1887.300781 L 2444.519531 690.800781 L 3377.738281 1268.550781 L 2636.988281 2465.050781 Z M 1703.773438 1887.300781 " clip-rule="nonzero"/></clipPath><clipPath id="dadfb7e7b7"><path d="M 2212 1055 L 2318 1055 L 2318 1138 L 2212 1138 Z M 2212 1055 " clip-rule="nonzero"/></clipPath><clipPath id="29d412edd4"><path d="M 1703.773438 1887.300781 L 2444.519531 690.800781 L 3377.738281 1268.550781 L 2636.988281 2465.050781 Z M 1703.773438 1887.300781 " clip-rule="nonzero"/></clipPath><clipPath id="41a5502d1c"><path d="M 1703.773438 1887.300781 L 2444.519531 690.800781 L 3377.738281 1268.550781 L 2636.988281 2465.050781 Z M 1703.773438 1887.300781 " clip-rule="nonzero"/></clipPath><clipPath id="fd8fd6b975"><path d="M 2596 1160 L 2968 1160 L 2968 1518 L 2596 1518 Z M 2596 1160 " clip-rule="nonzero"/></clipPath><clipPath id="1cbffbd2f7"><path d="M 1703.773438 1887.300781 L 2444.519531 690.800781 L 3377.738281 1268.550781 L 2636.988281 2465.050781 Z M 1703.773438 1887.300781 " clip-rule="nonzero"/></clipPath><clipPath id="a435960602"><path d="M 1703.773438 1887.300781 L 2444.519531 690.800781 L 3377.738281 1268.550781 L 2636.988281 2465.050781 Z M 1703.773438 1887.300781 " clip-rule="nonzero"/></clipPath><clipPath id="c82d98d3ac"><path d="M 2584 1148 L 2980 1148 L 2980 1531 L 2584 1531 Z M 2584 1148 " clip-rule="nonzero"/></clipPath><clipPath id="7372346449"><path d="M 1703.773438 1887.300781 L 2444.519531 690.800781 L 3377.738281 1268.550781 L 2636.988281 2465.050781 Z M 1703.773438 1887.300781 " clip-rule="nonzero"/></clipPath><clipPath id="8813c59181"><path d="M 1703.773438 1887.300781 L 2444.519531 690.800781 L 3377.738281 1268.550781 L 2636.988281 2465.050781 Z M 1703.773438 1887.300781 " clip-rule="nonzero"/></clipPath><clipPath id="639ba5bb45"><path d="M 2451 914 L 2834 914 L 2834 1513 L 2451 1513 Z M 2451 914 " clip-rule="nonzero"/></clipPath><clipPath id="b7e985eaf5"><path d="M 1703.773438 1887.300781 L 2444.519531 690.800781 L 3377.738281 1268.550781 L 2636.988281 2465.050781 Z M 1703.773438 1887.300781 " clip-rule="nonzero"/></clipPath><clipPath id="6a1ee3936d"><path d="M 1703.773438 1887.300781 L 2444.519531 690.800781 L 3377.738281 1268.550781 L 2636.988281 2465.050781 Z M 1703.773438 1887.300781 " clip-rule="nonzero"/></clipPath><clipPath id="ccf00c1fbc"><path d="M 2440 903 L 2845 903 L 2845 1530 L 2440 1530 Z M 2440 903 " clip-rule="nonzero"/></clipPath><clipPath id="c3c05fc967"><path d="M 1703.773438 1887.300781 L 2444.519531 690.800781 L 3377.738281 1268.550781 L 2636.988281 2465.050781 Z M 1703.773438 1887.300781 " clip-rule="nonzero"/></clipPath><clipPath id="62322936a5"><path d="M 1703.773438 1887.300781 L 2444.519531 690.800781 L 3377.738281 1268.550781 L 2636.988281 2465.050781 Z M 1703.773438 1887.300781 " clip-rule="nonzero"/></clipPath><clipPath id="d7b8c1715b"><path d="M 2281.429688 1339.03125 L 2594.203125 833.824219 L 2932.148438 1043.046875 L 2619.375 1548.253906 Z M 2281.429688 1339.03125 " clip-rule="nonzero"/></clipPath><clipPath id="ed5d035faa"><path d="M 2272 1655 L 2552 1655 L 2552 2105 L 2272 2105 Z M 2272 1655 " clip-rule="nonzero"/></clipPath><clipPath id="c02a0e0847"><path d="M 1703.773438 1887.300781 L 2444.519531 690.800781 L 3377.738281 1268.550781 L 2636.988281 2465.050781 Z M 1703.773438 1887.300781 " clip-rule="nonzero"/></clipPath><clipPath id="fe42917aa0"><path d="M 1703.773438 1887.300781 L 2444.519531 690.800781 L 3377.738281 1268.550781 L 2636.988281 2465.050781 Z M 1703.773438 1887.300781 " clip-rule="nonzero"/></clipPath><clipPath id="3da566cc2f"><path d="M 2261 1639 L 2564 1639 L 2564 2117 L 2261 2117 Z M 2261 1639 " clip-rule="nonzero"/></clipPath><clipPath id="780e1e40b5"><path d="M 1703.773438 1887.300781 L 2444.519531 690.800781 L 3377.738281 1268.550781 L 2636.988281 2465.050781 Z M 1703.773438 1887.300781 " clip-rule="nonzero"/></clipPath><clipPath id="a78ebb55ae"><path d="M 1703.773438 1887.300781 L 2444.519531 690.800781 L 3377.738281 1268.550781 L 2636.988281 2465.050781 Z M 1703.773438 1887.300781 " clip-rule="nonzero"/></clipPath><clipPath id="4a3de0989b"><path d="M 1984 1642 L 2506 1642 L 2506 2071 L 1984 2071 Z M 1984 1642 " clip-rule="nonzero"/></clipPath><clipPath id="c620fdc5a4"><path d="M 1703.773438 1887.300781 L 2444.519531 690.800781 L 3377.738281 1268.550781 L 2636.988281 2465.050781 Z M 1703.773438 1887.300781 " clip-rule="nonzero"/></clipPath><clipPath id="ae6ac10543"><path d="M 1703.773438 1887.300781 L 2444.519531 690.800781 L 3377.738281 1268.550781 L 2636.988281 2465.050781 Z M 1703.773438 1887.300781 " clip-rule="nonzero"/></clipPath><clipPath id="9cea0e53bf"><path d="M 1972 1631 L 2522 1631 L 2522 2083 L 1972 2083 Z M 1972 1631 " clip-rule="nonzero"/></clipPath><clipPath id="41231b1ad0"><path d="M 1703.773438 1887.300781 L 2444.519531 690.800781 L 3377.738281 1268.550781 L 2636.988281 2465.050781 Z M 1703.773438 1887.300781 " clip-rule="nonzero"/></clipPath><clipPath id="acdce7d5ea"><path d="M 1703.773438 1887.300781 L 2444.519531 690.800781 L 3377.738281 1268.550781 L 2636.988281 2465.050781 Z M 1703.773438 1887.300781 " clip-rule="nonzero"/></clipPath><clipPath id="a7a59d0229"><rect x="0" width="3188" y="0" height="3153"/></clipPath></defs><g transform="matrix(1, 0, 0, 1, 185, 297)"><g clip-path="url(#a7a59d0229)"><path fill="#fc0393" d="M 542.464844 2721.433594 C 564.238281 2999.957031 1115.355469 3159.027344 1589.34375 3151.453125 C 2081.761719 3143.53125 2669.503906 2970.488281 2641.269531 2680.636719 C 2641.152344 2679.640625 2640.859375 2678.699219 2640.742188 2677.761719 C 2386.109375 2796.449219 2002.929688 2880.796875 1648.21875 2885.613281 C 1260.925781 2890.835938 819.164062 2850.335938 542.464844 2721.433594 Z M 542.464844 2721.433594 " fill-opacity="1" fill-rule="nonzero"/><path fill="#702792" d="M 2929.476562 2368.246094 C 2922.375 2335.140625 2903.296875 2304.207031 2874.359375 2275.445312 C 2759.957031 2347.703125 2600.003906 2414.089844 2413.582031 2467.152344 C 2176.207031 2534.714844 1896.039062 2580.617188 1612.351562 2589.1875 C 1239.621094 2600.398438 914.84375 2568.582031 663.144531 2499.730469 C 503.195312 2456 372.882812 2397.363281 278.792969 2325.164062 C 273.742188 2341.539062 270.691406 2358.738281 270.222656 2376.757812 C 266.054688 2531.132812 373.53125 2642.71875 542.523438 2721.433594 C 819.222656 2850.335938 1260.984375 2890.835938 1648.273438 2885.613281 C 2002.988281 2880.796875 2386.226562 2796.390625 2640.800781 2677.761719 C 2833.917969 2587.71875 2953.074219 2477.953125 2929.476562 2368.246094 Z M 2929.476562 2368.246094 " fill-opacity="1" fill-rule="nonzero"/><path fill="#fc0393" d="M 3058.554688 2011.246094 C 3047.695312 1965.050781 3012.007812 1923.023438 2957.007812 1885.042969 C 2824.703125 1960.589844 2642.5625 2029.851562 2433.007812 2083.035156 C 2186.417969 2145.605469 1902.085938 2185.929688 1616.753906 2188.042969 C 1284.230469 2190.449219 924.761719 2158.402344 629.921875 2085.324219 C 436.21875 2037.308594 270.515625 1971.566406 158.636719 1886.21875 C 127.234375 1922.316406 108.917969 1963.289062 107.804688 2009.894531 C 104.929688 2132.691406 165.855469 2238.582031 278.675781 2325.164062 C 372.707031 2397.359375 503.078125 2456 663.027344 2499.730469 C 914.726562 2568.582031 1239.503906 2600.398438 1612.234375 2589.1875 C 1895.921875 2580.617188 2176.089844 2534.714844 2413.464844 2467.152344 C 2599.886719 2414.089844 2759.839844 2347.644531 2874.242188 2275.445312 C 3007.664062 2191.214844 3079.214844 2099.175781 3058.554688 2011.246094 Z M 3058.554688 2011.246094 " fill-opacity="1" fill-rule="nonzero"/><path fill="#702792" d="M 3178.828125 1603.824219 C 3160.804688 1532.503906 3079.15625 1471.046875 2955.480469 1419.394531 C 2815.308594 1524.992188 2563.378906 1618.671875 2274.464844 1678.722656 C 2077.242188 1719.691406 1862.816406 1744.933594 1655.027344 1747.457031 C 1349.210938 1751.214844 1008.527344 1730.316406 722.667969 1671.382812 C 470.910156 1619.4375 261.828125 1537.90625 156.582031 1417.632812 C 66.011719 1468.640625 8.664062 1532.445312 6.140625 1612.453125 C 2.734375 1719.925781 59.671875 1810.675781 158.636719 1886.160156 C 270.515625 1971.507812 436.277344 2037.25 629.921875 2085.265625 C 924.765625 2158.34375 1284.230469 2190.449219 1616.753906 2187.984375 C 1902.085938 2185.871094 2186.417969 2145.546875 2433.007812 2082.976562 C 2642.503906 2029.792969 2824.703125 1960.589844 2957.007812 1884.984375 C 3115.082031 1794.707031 3201.953125 1695.449219 3178.828125 1603.824219 Z M 3178.828125 1603.824219 " fill-opacity="1" fill-rule="nonzero"/><path fill="#fc0393" d="M 3069.648438 1215.125 C 3051.6875 1139.875 2966.339844 1075.597656 2837.792969 1022.359375 C 2724.738281 1118.449219 2530.273438 1205.734375 2303.464844 1267.484375 C 2102.304688 1322.25 1875.789062 1356.996094 1658.136719 1359.933594 C 1354.609375 1364.042969 1014.628906 1336.21875 744.621094 1260.378906 C 537.53125 1202.210938 371.710938 1115.75 295.050781 993.714844 C 169.964844 1049.476562 86.203125 1123.964844 83.210938 1223.636719 C 80.980469 1297.300781 107.570312 1361.574219 156.523438 1417.515625 C 261.769531 1537.789062 470.851562 1619.320312 722.609375 1671.265625 C 1008.40625 1730.199219 1349.148438 1751.097656 1654.96875 1747.339844 C 1862.757812 1744.816406 2077.183594 1719.574219 2274.40625 1678.605469 C 2563.320312 1618.613281 2815.191406 1524.875 2955.421875 1419.277344 C 3042.179688 1354.121094 3086.203125 1284.269531 3069.648438 1215.125 Z M 3069.648438 1215.125 " fill-opacity="1" fill-rule="nonzero"/><path fill="#702792" d="M 2939.75 817.972656 C 2919.96875 725.757812 2809.382812 650.039062 2647.726562 590.8125 C 2596.367188 704.214844 2416.75 805.824219 2192.054688 873.207031 C 2024.707031 923.394531 1832.46875 954.621094 1649.742188 957.558594 C 1384.957031 961.785156 1087.769531 940.828125 870.878906 861.703125 C 698.777344 798.894531 577.386719 699.460938 562.890625 546.789062 C 385.152344 605.425781 252.730469 693.652344 249.148438 826.601562 C 247.503906 888.585938 264 944.117188 295.167969 993.773438 C 371.769531 1115.75 537.589844 1202.210938 744.738281 1260.4375 C 1014.746094 1336.277344 1354.726562 1364.101562 1658.253906 1359.992188 C 1875.90625 1357.054688 2102.421875 1322.308594 2303.582031 1267.542969 C 2530.332031 1205.792969 2724.855469 1118.449219 2837.910156 1022.417969 C 2915.214844 956.558594 2954.484375 886.648438 2939.75 817.972656 Z M 2939.75 817.972656 " fill-opacity="1" fill-rule="nonzero"/><path fill="#fc0393" d="M 2660.40625 499.769531 C 2638.277344 378.382812 2470.8125 288.222656 2248.933594 229.054688 C 2251.984375 236.804688 2254.449219 244.726562 2255.800781 252.886719 C 2269.066406 332.421875 2192.40625 408.085938 2074.480469 465.726562 C 1948.574219 527.183594 1775.648438 568.097656 1614.289062 570.914062 C 1404.738281 574.609375 1163.371094 551.015625 1028.542969 455.921875 C 962.273438 409.140625 921.59375 345.160156 923.414062 258.40625 C 923.765625 241.441406 926.757812 225.652344 931.925781 210.859375 C 734.464844 261.515625 564.886719 350.738281 561.304688 507.695312 C 561.011719 521.136719 561.65625 534.109375 562.890625 546.847656 C 577.386719 699.519531 698.835938 799.015625 870.878906 861.761719 C 1087.769531 940.886719 1384.957031 961.902344 1649.742188 957.617188 C 1832.46875 954.679688 2024.707031 923.453125 2192.054688 873.265625 C 2416.75 805.882812 2596.367188 704.273438 2647.726562 590.871094 C 2661.167969 561.109375 2666.039062 530.644531 2660.40625 499.769531 Z M 2660.40625 499.769531 " fill-opacity="1" fill-rule="nonzero"/><path fill="#702792" d="M 2255.800781 252.886719 C 2254.449219 244.726562 2251.984375 236.804688 2248.933594 229.054688 C 2190.820312 80.492188 1835.050781 6.121094 1548.488281 6.121094 C 1548.488281 6.121094 1006.355469 -3.445312 931.867188 210.800781 C 926.757812 225.59375 923.707031 241.382812 923.355469 258.347656 C 921.535156 345.101562 962.210938 409.082031 1028.484375 455.863281 C 1163.3125 551.015625 1404.679688 574.550781 1614.230469 570.855469 C 1775.589844 568.035156 1948.515625 527.125 2074.421875 465.667969 C 2192.40625 408.085938 2269.066406 332.421875 2255.800781 252.886719 Z M 2255.800781 252.886719 " fill-opacity="1" fill-rule="nonzero"/><path fill="#fbc751" d="M 1398.984375 2044.117188 C 1181.917969 1647.140625 731.882812 1887.214844 1056.011719 2278.085938 C 1143.003906 2382.980469 1264.214844 2507.480469 1430.210938 2620.355469 C 1564.21875 2531.78125 1995.769531 2047.460938 1814.390625 1870.429688 C 1581.945312 1643.5625 1398.984375 2044.117188 1398.984375 2044.117188 Z M 1398.984375 2044.117188 " fill-opacity="1" fill-rule="nonzero"/><g clip-path="url(#ebcc40ae3d)"><g clip-path="url(#c1a6f2ad38)"><g clip-path="url(#58e1b80e16)"><path fill="#000000" d="M 1472.144531 1000.503906 C 1524.703125 923.652344 1514.769531 788.574219 1428.78125 729.769531 C 1342.792969 670.949219 1213.304688 710.671875 1160.746094 787.523438 C 1108.183594 864.382812 1221.082031 848.890625 1307.078125 907.703125 C 1393.074219 966.511719 1419.570312 1077.359375 1472.144531 1000.503906 " fill-opacity="1" fill-rule="nonzero"/></g></g></g><g clip-path="url(#085c9a2d8f)"><g clip-path="url(#d432ee41fe)"><g clip-path="url(#9a8ccc1637)"><path fill="#000000" d="M 1390.527344 972.484375 C 1404.070312 988.761719 1415.757812 1002.808594 1426.070312 1009.859375 C 1433.492188 1014.933594 1442.722656 1021.246094 1461.761719 993.40625 C 1509.46875 923.660156 1502.257812 795.089844 1421.757812 740.027344 C 1341.261719 684.96875 1218.824219 724.878906 1171.125 794.628906 C 1152.078125 822.464844 1161.320312 828.785156 1168.730469 833.855469 C 1179.046875 840.90625 1196.378906 846.699219 1216.453125 853.425781 C 1245.492188 863.132812 1281.625 875.230469 1314.09375 897.441406 C 1346.574219 919.640625 1370.9375 948.945312 1390.527344 972.484375 Z M 1150.363281 780.425781 C 1205.5625 699.722656 1342.265625 655.527344 1435.804688 719.5 C 1529.324219 783.472656 1537.71875 926.894531 1482.527344 1007.605469 C 1460.574219 1039.703125 1436.851562 1047.367188 1412.035156 1030.394531 C 1398.789062 1021.34375 1386.054688 1006.023438 1371.292969 988.289062 C 1351.753906 964.808594 1329.605469 938.175781 1300.058594 917.972656 C 1270.515625 897.761719 1237.664062 886.773438 1208.695312 877.078125 C 1186.816406 869.753906 1167.921875 863.441406 1154.683594 854.382812 C 1129.859375 837.402344 1128.410156 812.523438 1150.363281 780.425781 " fill-opacity="1" fill-rule="nonzero"/></g></g></g><g clip-path="url(#9a3500b9cd)"><g clip-path="url(#771a0a2888)"><g clip-path="url(#adba618116)"><path fill="#fbc122" d="M 1327.125 873.449219 C 1452.605469 959.269531 1490.707031 1121.875 1384.980469 1276.457031 C 1287.445312 1419.066406 1134.226562 1487.015625 1010.414062 1427.878906 C 1000.003906 1422.90625 931.273438 1375.585938 921.953125 1366.46875 C 825.125 1271.753906 834.125 1106.679688 930.5625 965.671875 C 1036.296875 811.085938 1201.644531 787.617188 1327.125 873.449219 " fill-opacity="1" fill-rule="nonzero"/></g></g></g><g clip-path="url(#406321a426)"><g clip-path="url(#e058c77dea)"><g clip-path="url(#fa99baf3e1)"><g clip-path="url(#c809ea826b)"><path fill="#000000" d="M 933.890625 981.917969 C 838.664062 1121.144531 834.476562 1279.339844 923.703125 1366.621094 C 937.894531 1380.511719 998.4375 1420.734375 1008.785156 1425.671875 C 1123.328125 1480.394531 1270.863281 1419.878906 1367.550781 1278.507812 C 1463.074219 1138.824219 1440.636719 980.289062 1312.972656 892.980469 C 1185.316406 805.660156 1029.425781 842.238281 933.890625 981.917969 Z M 908.003906 1391.929688 C 907.054688 1387.292969 904.566406 1383.140625 901.273438 1379.742188 C 855.011719 1331.789062 831.839844 1267.101562 834.167969 1192.183594 C 836.460938 1118.535156 864.5 1038.824219 913.128906 967.710938 C 965.515625 891.132812 1034.222656 842.207031 1111.851562 826.234375 C 1185.261719 811.121094 1261.726562 827.449219 1327.171875 872.210938 C 1392.617188 916.972656 1435.5625 982.324219 1448.101562 1056.210938 C 1461.355469 1134.347656 1440.679688 1216.125 1388.304688 1292.710938 C 1287.9375 1439.453125 1134.625 1504.167969 1010.710938 1454.003906 C 1004.394531 1451.445312 997.324219 1451.546875 991.070312 1454.253906 C 952.960938 1470.71875 911.351562 1523.707031 899.589844 1507.871094 C 883.144531 1485.738281 916.042969 1431.070312 908.003906 1391.929688 " fill-opacity="1" fill-rule="nonzero"/></g></g></g></g><g clip-path="url(#514004517e)"><g clip-path="url(#f6fde53ae3)"><g clip-path="url(#69818b6965)"><path fill="#000000" d="M 856.902344 1178.003906 C 1119.886719 1224.113281 1221.320312 1416.488281 1222.320312 1418.425781 L 1324.332031 1358.683594 C 1319.285156 1348.867188 1197.296875 1117.394531 883.183594 1062.328125 L 856.902344 1178.003906 " fill-opacity="1" fill-rule="nonzero"/></g></g></g><g clip-path="url(#0b6baaf79a)"><g clip-path="url(#eeb571c63e)"><g clip-path="url(#e6215b69ff)"><path fill="#000000" d="M 924.40625 959.820312 C 1188.28125 1004.644531 1391.640625 1263.324219 1392.621094 1265.277344 L 1434.757812 1149.21875 C 1429.765625 1139.320312 1355.460938 918.175781 1040.289062 864.636719 L 924.40625 959.820312 " fill-opacity="1" fill-rule="nonzero"/></g></g></g><g clip-path="url(#0330b385f1)"><g clip-path="url(#ba21d1f091)"><g clip-path="url(#3dd4a3f761)"><path fill="#000000" d="M 1316.457031 711.515625 L 1338.585938 723.175781 C 1339.308594 721.40625 1356.46875 679.292969 1366.675781 630.144531 C 1381.1875 560.1875 1374.320312 514.136719 1345.660156 489.359375 C 1318.15625 465.585938 1275.933594 465.351562 1216.566406 488.644531 L 1230.492188 508.15625 C 1279.324219 488.988281 1314.445312 486.917969 1332.195312 502.242188 C 1369.859375 534.804688 1342.527344 647.882812 1316.457031 711.515625 " fill-opacity="1" fill-rule="nonzero"/></g></g></g><g clip-path="url(#7561a2ed68)"><g clip-path="url(#a87d1411ab)"><g clip-path="url(#636f838fb2)"><path fill="#000000" d="M 1229.996094 468.480469 C 1206.953125 485.234375 1201.71875 512.371094 1218.316406 529.109375 C 1234.917969 545.835938 1267.050781 545.816406 1290.101562 529.070312 C 1313.148438 512.308594 1318.382812 485.171875 1301.777344 468.445312 C 1285.183594 451.707031 1253.039062 451.722656 1229.996094 468.480469 " fill-opacity="1" fill-rule="nonzero"/></g></g></g><g clip-path="url(#03128be6e2)"><g clip-path="url(#4ce6d58c8c)"><g clip-path="url(#70c233ccfb)"><path fill="#000000" d="M 1481.898438 824.667969 L 1463.007812 808.273438 C 1464.398438 806.960938 1497.421875 775.695312 1539.527344 748.367188 C 1599.460938 709.46875 1644.863281 699.175781 1678.339844 716.902344 C 1710.476562 733.90625 1726.003906 773.179688 1725.828125 836.941406 L 1702.601562 831.039062 C 1702.746094 778.582031 1691.9375 745.105469 1671.234375 734.125 C 1627.226562 710.828125 1531.753906 777.292969 1481.898438 824.667969 " fill-opacity="1" fill-rule="nonzero"/></g></g></g><g clip-path="url(#908903e02e)"><g clip-path="url(#ee4ae2b3f7)"><g clip-path="url(#ba524a1676)"><path fill="#000000" d="M 1739.75 817.117188 C 1732.496094 844.667969 1709.09375 859.382812 1687.488281 849.984375 C 1665.875 840.582031 1654.234375 810.628906 1661.488281 783.078125 C 1668.75 755.519531 1692.152344 740.808594 1713.75 750.210938 C 1735.371094 759.605469 1747.003906 789.566406 1739.75 817.117188 " fill-opacity="1" fill-rule="nonzero"/></g></g></g><g clip-path="url(#dda8ea1ac9)"><g clip-path="url(#fc217ec07b)"><g clip-path="url(#0d9a4e8fee)"><path fill="#1cd4f0" d="M 1265.691406 1112.664062 C 1265.691406 1112.664062 1541.574219 1112.011719 1596.6875 1272.765625 C 1651.78125 1433.515625 1549.667969 1524.710938 1431.234375 1484.851562 C 1312.785156 1444.992188 1265.691406 1112.664062 1265.691406 1112.664062 " fill-opacity="1" fill-rule="nonzero"/></g></g></g><g clip-path="url(#9062c61984)"><g clip-path="url(#7465f1088b)"><g clip-path="url(#82ee828fa1)"><path fill="#000000" d="M 1279.09375 1124.59375 C 1288.898438 1183.292969 1331.179688 1406.070312 1415.929688 1464.042969 C 1422.292969 1468.398438 1428.804688 1471.699219 1435.292969 1473.894531 C 1487.09375 1491.320312 1536.65625 1482.328125 1567.875 1449.847656 C 1604.109375 1412.136719 1610.726562 1349.175781 1586.019531 1277.117188 C 1574.441406 1243.320312 1551.214844 1214.3125 1516.996094 1190.910156 C 1437.351562 1136.433594 1319.347656 1126.421875 1279.09375 1124.59375 Z M 1254.542969 1114.953125 L 1252.589844 1101.171875 L 1266.316406 1101.140625 C 1272.867188 1101.128906 1427.960938 1101.5625 1530.246094 1171.527344 C 1568.289062 1197.539062 1594.21875 1230.132812 1607.347656 1268.40625 C 1635.003906 1349.117188 1626.316406 1420.953125 1583.5 1465.511719 C 1545.792969 1504.746094 1487.351562 1516.070312 1427.15625 1495.8125 C 1418.847656 1493.023438 1410.609375 1488.847656 1402.675781 1483.425781 C 1402.667969 1483.417969 1402.675781 1483.425781 1402.675781 1483.425781 C 1297.660156 1411.59375 1256.246094 1127.023438 1254.542969 1114.953125 " fill-opacity="1" fill-rule="nonzero"/></g></g></g><g clip-path="url(#64bc48a591)"><g clip-path="url(#34a7170986)"><g clip-path="url(#f3ebe00f02)"><path fill="#1cd4f0" d="M 1270.882812 1110.53125 C 1270.882812 1110.53125 1573.847656 900.304688 1751.234375 1021.558594 C 1928.625 1142.828125 1882.558594 1312.921875 1723.328125 1362.449219 C 1564.09375 1411.984375 1270.882812 1110.53125 1270.882812 1110.53125 " fill-opacity="1" fill-rule="nonzero"/></g></g></g><g clip-path="url(#ef0daaf2fd)"><g clip-path="url(#3ae3edd32d)"><g clip-path="url(#f9d563a1b8)"><g clip-path="url(#7fef902758)"><path fill="#000000" d="M 1448.371094 1031.171875 C 1375.222656 1059.058594 1313.957031 1095.980469 1288.921875 1111.996094 C 1315.402344 1138.015625 1391.96875 1210.789062 1478.433594 1269.933594 C 1478.445312 1269.941406 1478.453125 1269.945312 1478.453125 1269.945312 C 1581.566406 1340.464844 1665.3125 1368.644531 1720.625 1351.445312 C 1791.53125 1329.394531 1840.429688 1281.597656 1851.417969 1223.597656 C 1864.144531 1156.488281 1825.242188 1086.402344 1744.609375 1031.25 C 1656.886719 971.300781 1535.097656 998.109375 1448.371094 1031.171875 Z M 1262.667969 1118.882812 L 1253.25 1109.214844 L 1264.929688 1101.109375 C 1268.066406 1098.929688 1342.996094 1047.289062 1441.128906 1009.808594 C 1572.796875 959.523438 1682.324219 960.234375 1757.957031 1011.933594 C 1845.878906 1072.070312 1888.007812 1150.367188 1873.53125 1226.726562 C 1860.8125 1293.828125 1805.671875 1348.6875 1726.027344 1373.460938 C 1663.164062 1393.011719 1575.417969 1364.703125 1465.203125 1289.328125 C 1465.191406 1289.320312 1465.203125 1289.328125 1465.183594 1289.316406 C 1356.648438 1215.085938 1263.589844 1119.839844 1262.667969 1118.882812 " fill-opacity="1" fill-rule="nonzero"/></g></g></g></g><g clip-path="url(#d854fe97ae)"><g clip-path="url(#0af681b5b4)"><g clip-path="url(#ab433c6e29)"><path fill="#1cd4f0" d="M 1131.699219 1021.230469 C 1131.699219 1021.230469 1031.734375 764.09375 861.960938 771.378906 C 692.179688 778.675781 644.484375 907.007812 724.789062 1002.765625 C 805.085938 1098.535156 1131.699219 1021.230469 1131.699219 1021.230469 " fill-opacity="1" fill-rule="nonzero"/></g></g></g><g clip-path="url(#1053e0f81a)"><g clip-path="url(#a8b89c9159)"><g clip-path="url(#ccda61aa48)"><path fill="#000000" d="M 967.234375 815.75 C 932.964844 792.414062 897.480469 781.359375 861.785156 782.894531 C 785.679688 786.15625 729.464844 815.273438 707.558594 862.761719 C 688.695312 903.675781 698.390625 953.101562 733.511719 994.988281 C 737.910156 1000.230469 743.367188 1005.09375 749.734375 1009.425781 C 834.621094 1067.214844 1057.472656 1025.367188 1115.707031 1013.097656 C 1099.328125 976.277344 1046.996094 870.054688 967.234375 815.75 Z M 736.523438 1028.835938 C 736.515625 1028.832031 736.523438 1028.835938 736.515625 1028.832031 C 728.574219 1023.421875 721.683594 1017.273438 716.058594 1010.550781 C 675.25 961.886719 664.492188 903.335938 687.285156 853.929688 C 713.160156 797.808594 776.894531 763.539062 862.125 759.859375 C 902.546875 758.132812 942.351562 770.398438 980.441406 796.339844 C 1082.882812 866.078125 1139.828125 1010.339844 1142.203125 1016.445312 L 1147.175781 1029.238281 L 1133.644531 1032.449219 C 1121.769531 1035.257812 841.6875 1100.433594 736.523438 1028.835938 " fill-opacity="1" fill-rule="nonzero"/></g></g></g><g clip-path="url(#4dd9785c96)"><g clip-path="url(#5f58aed423)"><g clip-path="url(#dda736a569)"><path fill="#1cd4f0" d="M 1131.804688 1015.621094 C 1131.804688 1015.621094 1217.105469 656.863281 1039.527344 535.886719 C 861.9375 414.914062 720.34375 519.820312 732.273438 686.144531 C 744.203125 852.484375 1131.804688 1015.621094 1131.804688 1015.621094 " fill-opacity="1" fill-rule="nonzero"/></g></g></g><g clip-path="url(#a0f680046b)"><g clip-path="url(#f80f837eda)"><g clip-path="url(#8af3c8d28c)"><path fill="#000000" d="M 1032.921875 545.589844 C 952.171875 490.609375 872.726562 479.933594 814.871094 516.25 C 764.878906 547.632812 738.1875 610.585938 743.503906 684.652344 C 747.652344 742.425781 804.421875 810.136719 907.679688 880.445312 C 907.679688 880.445312 907.6875 880.453125 907.695312 880.457031 C 994.292969 939.414062 1089.980469 984.1875 1123.855469 999.351562 C 1129.640625 970.203125 1141.6875 899.691406 1140.988281 821.410156 C 1140.160156 728.601562 1120.734375 605.421875 1032.921875 545.589844 Z M 894.480469 899.863281 C 894.472656 899.855469 894.472656 899.855469 894.460938 899.851562 C 784.09375 824.699219 725.746094 753.308594 721.035156 687.648438 C 715.070312 604.449219 746.050781 533.105469 803.898438 496.800781 C 869.722656 455.484375 957.988281 466.171875 1046.050781 526.125 C 1121.757812 577.699219 1162.347656 679.429688 1163.519531 820.367188 C 1164.394531 925.414062 1143.625 1014.011719 1142.746094 1017.730469 L 1139.445312 1031.558594 L 1127.019531 1026.316406 C 1125.785156 1025.804688 1003.167969 973.867188 894.480469 899.863281 " fill-opacity="1" fill-rule="nonzero"/></g></g></g><g clip-path="url(#f9e5ee321a)"><g clip-path="url(#b1cb6ebc07)"><g clip-path="url(#512191aae1)"><path fill="#050606" d="M 2475.230469 1315.988281 C 2396.121094 1266.898438 2261.613281 1282.828125 2206.691406 1371.347656 C 2151.753906 1459.867188 2197.195312 1587.457031 2276.304688 1636.546875 C 2355.425781 1685.640625 2334.929688 1573.542969 2389.859375 1485.015625 C 2444.789062 1396.492188 2554.347656 1365.09375 2475.230469 1315.988281 " fill-opacity="1" fill-rule="nonzero"/></g></g></g><g clip-path="url(#f9a986e2bd)"><g clip-path="url(#c7bb9f3e62)"><g clip-path="url(#ca3c6373b5)"><path fill="#050606" d="M 2450.867188 1398.773438 C 2466.527344 1384.519531 2480.039062 1372.21875 2486.625 1361.597656 C 2491.367188 1353.960938 2497.261719 1344.457031 2468.601562 1326.675781 C 2396.804688 1282.117188 2268.679688 1295.035156 2217.25 1377.90625 C 2165.828125 1460.769531 2211.140625 1581.3125 2282.945312 1625.863281 C 2311.601562 1643.652344 2317.5 1634.140625 2322.238281 1626.511719 C 2328.824219 1615.894531 2333.839844 1598.320312 2339.667969 1577.96875 C 2348.074219 1548.527344 2358.550781 1511.890625 2379.296875 1478.464844 C 2400.03125 1445.03125 2428.21875 1419.386719 2450.867188 1398.773438 Z M 2269.675781 1647.234375 C 2186.601562 1595.679688 2136.371094 1461.078125 2196.117188 1364.789062 C 2255.871094 1268.511719 2398.78125 1253.753906 2481.859375 1305.300781 C 2514.902344 1325.804688 2523.613281 1349.164062 2507.761719 1374.710938 C 2499.308594 1388.34375 2484.570312 1401.746094 2467.511719 1417.28125 C 2444.925781 1437.84375 2419.300781 1461.15625 2400.433594 1491.574219 C 2381.554688 1521.984375 2372.039062 1555.292969 2363.640625 1584.664062 C 2357.296875 1606.847656 2351.828125 1626.003906 2343.367188 1639.628906 C 2327.511719 1665.1875 2302.71875 1667.742188 2269.675781 1647.234375 " fill-opacity="1" fill-rule="nonzero"/></g></g></g><g clip-path="url(#89acaec00a)"><g clip-path="url(#fbed1c3e0c)"><g clip-path="url(#a20ef838e8)"><path fill="#fbc122" d="M 2354.75 1466.511719 C 2434.90625 1337.339844 2595.65625 1292.046875 2754.785156 1390.796875 C 2901.589844 1481.890625 2976.289062 1631.941406 2922.710938 1758.257812 C 2918.207031 1768.878906 2873.992188 1839.644531 2865.296875 1849.363281 C 2774.980469 1950.308594 2609.667969 1948.65625 2464.515625 1858.582031 C 2305.378906 1759.828125 2274.582031 1595.6875 2354.75 1466.511719 " fill-opacity="1" fill-rule="nonzero"/></g></g></g><g clip-path="url(#e68ac60d79)"><g clip-path="url(#1bac8fb7c8)"><g clip-path="url(#b8d51a238e)"><g clip-path="url(#e610e36b87)"><path fill="#050606" d="M 2480.59375 1854.535156 C 2623.917969 1943.476562 2782.144531 1940.628906 2865.371094 1847.609375 C 2878.617188 1832.8125 2916.105469 1770.539062 2920.582031 1759.984375 C 2970.15625 1643.121094 2903.140625 1498.421875 2757.609375 1408.117188 C 2613.816406 1318.898438 2456.433594 1348.363281 2374.886719 1479.78125 C 2293.332031 1611.195312 2336.804688 1765.304688 2480.59375 1854.535156 Z M 2891.351562 1862.164062 C 2886.761719 1863.320312 2882.726562 1865.992188 2879.476562 1869.433594 C 2833.625 1917.78125 2770.035156 1943.804688 2695.089844 1944.808594 C 2621.410156 1945.796875 2540.53125 1921.324219 2467.324219 1875.90625 C 2388.496094 1826.980469 2336.5625 1760.515625 2317.152344 1683.671875 C 2298.792969 1611.007812 2311.703125 1533.894531 2353.511719 1466.523438 C 2395.316406 1399.152344 2458.695312 1353.339844 2531.953125 1337.53125 C 2609.421875 1320.816406 2692.039062 1337.835938 2770.875 1386.753906 C 2921.9375 1480.496094 2993.40625 1630.777344 2948.796875 1756.800781 C 2946.523438 1763.226562 2946.941406 1770.28125 2949.921875 1776.410156 C 2968.0625 1813.75 3022.851562 1852.960938 3007.554688 1865.414062 C 2986.175781 1882.828125 2930.097656 1852.394531 2891.351562 1862.164062 " fill-opacity="1" fill-rule="nonzero"/></g></g></g></g><g clip-path="url(#16dd6db327)"><g clip-path="url(#17cab0a511)"><g clip-path="url(#693c9e7d76)"><path fill="#050606" d="M 2679.910156 1922.726562 C 2714.28125 1657.953125 2901.953125 1548.066406 2903.847656 1546.980469 L 2839.628906 1447.726562 C 2830.042969 1453.207031 2604.222656 1585.363281 2563.183594 1901.617188 L 2679.910156 1922.726562 " fill-opacity="1" fill-rule="nonzero"/></g></g></g><g clip-path="url(#95c246bce3)"><g clip-path="url(#3276ba5dda)"><g clip-path="url(#e5bafa2efe)"><path fill="#050606" d="M 2458.945312 1864.992188 C 2491.988281 1599.386719 2741.371094 1384.722656 2743.277344 1383.660156 L 2625.460938 1346.722656 C 2615.796875 1352.152344 2398.171875 1436.21875 2358.699219 1753.457031 L 2458.945312 1864.992188 " fill-opacity="1" fill-rule="nonzero"/></g></g></g><g clip-path="url(#ca1ea57dcd)"><g clip-path="url(#baddfac9e0)"><g clip-path="url(#8ed5e021dd)"><path fill="#050606" d="M 2193.449219 1484.371094 L 2204.113281 1461.746094 C 2202.316406 1461.101562 2159.480469 1445.832031 2109.925781 1437.820312 C 2039.394531 1426.433594 1993.695312 1435.339844 1970.214844 1465.074219 C 1947.6875 1493.609375 1949.332031 1535.796875 1975.242188 1594.074219 L 1994.113281 1579.292969 C 1972.792969 1531.359375 1969.164062 1496.367188 1983.6875 1477.953125 C 2014.539062 1438.878906 2128.722656 1461.152344 2193.449219 1484.371094 " fill-opacity="1" fill-rule="nonzero"/></g></g></g><g clip-path="url(#a58ab7ed90)"><g clip-path="url(#66eed17222)"><g clip-path="url(#abfa71ca2b)"><path fill="#050606" d="M 1954.5 1581.554688 C 1972.261719 1603.828125 1999.605469 1607.847656 2015.585938 1590.523438 C 2031.558594 1573.195312 2030.113281 1541.09375 2012.355469 1518.8125 C 1994.589844 1496.535156 1967.246094 1492.511719 1951.273438 1509.84375 C 1935.289062 1527.167969 1936.730469 1559.277344 1954.5 1581.554688 " fill-opacity="1" fill-rule="nonzero"/></g></g></g><g clip-path="url(#061e977d05)"><g clip-path="url(#20825ecd1b)"><g clip-path="url(#d60637c22b)"><path fill="#050606" d="M 2299.132812 1314.0625 L 2283.59375 1333.660156 C 2282.222656 1332.332031 2249.519531 1300.734375 2220.347656 1259.882812 C 2178.824219 1201.738281 2166.523438 1156.835938 2182.742188 1122.609375 C 2198.296875 1089.746094 2236.84375 1072.484375 2300.550781 1069.828125 L 2295.683594 1093.292969 C 2243.273438 1095.480469 2210.3125 1107.769531 2200.265625 1128.941406 C 2178.945312 1173.941406 2249.585938 1266.363281 2299.132812 1314.0625 " fill-opacity="1" fill-rule="nonzero"/></g></g></g><g clip-path="url(#dadfb7e7b7)"><g clip-path="url(#29d412edd4)"><g clip-path="url(#41a5502d1c)"><path fill="#050606" d="M 2280.125 1056.800781 C 2307.972656 1062.824219 2323.710938 1085.550781 2315.285156 1107.550781 C 2306.851562 1129.5625 2277.445312 1142.523438 2249.601562 1136.5 C 2221.746094 1130.46875 2206.007812 1107.746094 2214.441406 1085.75 C 2222.867188 1063.734375 2252.28125 1050.777344 2280.125 1056.800781 " fill-opacity="1" fill-rule="nonzero"/></g></g></g><g clip-path="url(#fd8fd6b975)"><g clip-path="url(#1cbffbd2f7)"><g clip-path="url(#a435960602)"><path fill="#1cd4f0" d="M 2596.460938 1517.25 C 2596.460938 1517.25 2583.539062 1241.667969 2741.683594 1179.460938 C 2899.828125 1117.277344 2995.472656 1215.230469 2960.917969 1335.324219 C 2926.363281 1455.425781 2596.460938 1517.25 2596.460938 1517.25 " fill-opacity="1" fill-rule="nonzero"/></g></g></g><g clip-path="url(#c82d98d3ac)"><g clip-path="url(#7372346449)"><g clip-path="url(#8813c59181)"><path fill="#050606" d="M 2607.78125 1503.332031 C 2665.984375 1490.925781 2886.660156 1438.78125 2940.808594 1351.535156 C 2944.878906 1344.988281 2947.886719 1338.335938 2949.789062 1331.753906 C 2964.898438 1279.230469 2953.707031 1230.117188 2919.871094 1200.371094 C 2880.589844 1165.847656 2817.394531 1162.039062 2746.507812 1189.925781 C 2713.257812 1202.996094 2685.3125 1227.488281 2663.453125 1262.714844 C 2612.570312 1344.703125 2607.816406 1463.03125 2607.78125 1503.332031 Z M 2599.238281 1528.285156 L 2585.5625 1530.847656 L 2584.917969 1517.136719 C 2584.613281 1510.59375 2578.152344 1355.636719 2643.503906 1250.339844 C 2667.796875 1211.175781 2699.203125 1183.824219 2736.855469 1169.007812 C 2816.253906 1137.789062 2888.410156 1143.273438 2934.828125 1184.066406 C 2975.695312 1219.992188 2989.609375 1277.871094 2972.046875 1338.90625 C 2969.632812 1347.332031 2965.828125 1355.75 2960.761719 1363.914062 C 2960.757812 1363.921875 2960.761719 1363.914062 2960.761719 1363.914062 C 2893.671875 1472.019531 2611.226562 1526.046875 2599.238281 1528.285156 " fill-opacity="1" fill-rule="nonzero"/></g></g></g><g clip-path="url(#639ba5bb45)"><g clip-path="url(#b7e985eaf5)"><g clip-path="url(#6a1ee3936d)"><path fill="#1cd4f0" d="M 2594.097656 1512.160156 C 2594.097656 1512.160156 2370.609375 1218.839844 2483.855469 1036.238281 C 2597.117188 853.628906 2769.089844 892.089844 2825.648438 1048.957031 C 2882.214844 1205.832031 2594.097656 1512.160156 2594.097656 1512.160156 " fill-opacity="1" fill-rule="nonzero"/></g></g></g><g clip-path="url(#ccf00c1fbc)"><g clip-path="url(#c3c05fc967)"><g clip-path="url(#62322936a5)"><g clip-path="url(#d7b8c1715b)"><path fill="#050606" d="M 2506.925781 1338.375 C 2538.039062 1410.210938 2577.648438 1469.773438 2594.757812 1494.074219 C 2619.574219 1466.460938 2688.871094 1386.734375 2744.113281 1297.722656 C 2744.121094 1297.714844 2744.125 1297.707031 2744.125 1297.707031 C 2809.988281 1191.554688 2834.417969 1106.640625 2814.777344 1052.148438 C 2789.59375 982.292969 2739.667969 935.566406 2681.242188 927.167969 C 2613.628906 917.4375 2545.339844 959.421875 2493.832031 1042.425781 C 2437.839844 1132.726562 2470.039062 1253.207031 2506.925781 1338.375 Z M 2602.804688 1519.996094 L 2593.570312 1529.832031 L 2584.949219 1518.527344 C 2582.632812 1515.488281 2527.714844 1442.929688 2485.90625 1346.558594 C 2429.8125 1217.257812 2425.652344 1107.808594 2473.941406 1029.953125 C 2530.109375 939.441406 2606.453125 893.871094 2683.378906 904.9375 C 2750.984375 914.660156 2808.238281 967.308594 2836.527344 1045.773438 C 2858.855469 1107.703125 2834.476562 1196.625 2764.078125 1310.082031 C 2764.070312 1310.089844 2764.078125 1310.082031 2764.066406 1310.097656 C 2694.734375 1421.828125 2603.722656 1519.03125 2602.804688 1519.996094 " fill-opacity="1" fill-rule="nonzero"/></g></g></g></g><g clip-path="url(#ed5d035faa)"><g clip-path="url(#c02a0e0847)"><g clip-path="url(#fe42917aa0)"><path fill="#1cd4f0" d="M 2511.074219 1655.175781 C 2511.074219 1655.175781 2258.632812 1766.472656 2273.464844 1935.757812 C 2288.304688 2105.046875 2418.628906 2146.988281 2510.722656 2062.503906 C 2602.824219 1978.027344 2511.074219 1655.175781 2511.074219 1655.175781 " fill-opacity="1" fill-rule="nonzero"/></g></g></g><g clip-path="url(#3da566cc2f)"><g clip-path="url(#780e1e40b5)"><g clip-path="url(#a78ebb55ae)"><path fill="#050606" d="M 2313.109375 1828.613281 C 2291.320312 1863.886719 2281.851562 1899.828125 2284.976562 1935.417969 C 2291.617188 2011.304688 2323.203125 2066.171875 2371.621094 2085.941406 C 2413.332031 2102.96875 2462.28125 2091.085938 2502.566406 2054.136719 C 2507.601562 2049.507812 2512.222656 2043.839844 2516.265625 2037.289062 C 2570.222656 1949.914062 2518.507812 1729.144531 2503.660156 1671.511719 C 2467.605469 1689.511719 2363.8125 1746.515625 2313.109375 1828.613281 Z M 2536.242188 2049.621094 C 2536.238281 2049.628906 2536.242188 2049.621094 2536.238281 2049.628906 C 2531.1875 2057.804688 2525.351562 2064.960938 2518.886719 2070.878906 C 2472.085938 2113.8125 2414.070312 2127.164062 2363.699219 2106.589844 C 2306.484375 2083.234375 2269.414062 2021.085938 2261.949219 1936.105469 C 2258.425781 1895.796875 2268.90625 1855.488281 2293.128906 1816.28125 C 2358.246094 1710.84375 2499.835938 1647.539062 2505.828125 1644.894531 L 2518.386719 1639.355469 L 2522.195312 1652.734375 C 2525.527344 1664.46875 2603.09375 1941.378906 2536.242188 2049.621094 " fill-opacity="1" fill-rule="nonzero"/></g></g></g><g clip-path="url(#4a3de0989b)"><g clip-path="url(#c620fdc5a4)"><g clip-path="url(#ae6ac10543)"><path fill="#1cd4f0" d="M 2505.46875 1655.320312 C 2505.46875 1655.320312 2143.269531 1586.054688 2030.308594 1768.835938 C 1917.351562 1951.628906 2028.449219 2088.417969 2194.078125 2069.105469 C 2359.722656 2049.789062 2505.46875 1655.320312 2505.46875 1655.320312 " fill-opacity="1" fill-rule="nonzero"/></g></g></g><g clip-path="url(#9cea0e53bf)"><g clip-path="url(#41231b1ad0)"><g clip-path="url(#acdce7d5ea)"><path fill="#050606" d="M 2040.292969 1775.003906 C 1988.960938 1858.121094 1981.828125 1937.960938 2020.679688 1994.144531 C 2054.253906 2042.691406 2118.332031 2066.558594 2192.089844 2057.953125 C 2249.621094 2051.238281 2314.738281 1991.515625 2380.390625 1885.234375 C 2380.390625 1885.234375 2380.394531 1885.222656 2380.402344 1885.214844 C 2435.445312 1796.082031 2475.921875 1698.5 2489.566406 1663.984375 C 2460.1875 1659.503906 2389.210938 1650.601562 2311.039062 1654.78125 C 2218.359375 1659.734375 2096.164062 1684.617188 2040.292969 1775.003906 Z M 2400.375 1897.554688 C 2400.367188 1897.566406 2400.367188 1897.566406 2400.363281 1897.574219 C 2330.195312 2011.175781 2261.46875 2072.640625 2196.078125 2080.265625 C 2113.230469 2089.925781 2040.582031 2062.148438 2001.738281 2005.96875 C 1957.535156 1942.046875 1964.285156 1853.394531 2020.265625 1762.753906 C 2068.421875 1684.828125 2168.246094 1639.753906 2308.992188 1632.316406 C 2413.898438 1626.773438 2503.332031 1643.582031 2507.085938 1644.292969 L 2521.046875 1646.976562 L 2516.363281 1659.621094 C 2515.90625 1660.878906 2469.472656 1785.683594 2400.375 1897.554688 " fill-opacity="1" fill-rule="nonzero"/></g></g></g></g></g></svg>